<svg width="804" height="600" viewBox="0 0 804 600" fill="none" xmlns="http://www.w3.org/2000/svg">
<path d="M804 482.622H551.122L506.928 286.329H759.806L804 482.622Z" fill="#A6A6A6"/>
<path d="M462 482.622H714.878L759.072 286.329H506.194L462 482.622Z" fill="#DBDBDB"/>
<path d="M722.404 323.212L716.766 348.287L716.425 349.83L710.591 375.872L710.251 377.415L704.417 403.429L704.063 404.972L698.216 431L697.875 432.557L692.159 458.052H506.508L512.224 432.557L512.565 431L518.412 404.972L518.766 403.429L524.6 377.415L524.954 375.872L530.788 349.83L531.129 348.287L536.766 323.212H722.404Z" fill="white"/>
<path d="M563.956 323.212L558.319 348.287L557.978 349.83L552.144 375.872L551.803 377.415L545.969 403.429L545.615 404.972L539.782 431L539.428 432.557L533.712 458.052H532.23L537.959 432.557L538.3 431L544.134 404.972L544.488 403.429L550.309 377.415L550.663 375.872L556.51 349.83L556.851 348.287L562.462 323.212H563.956Z" fill="#EBEBEB"/>
<path d="M590.399 323.212L584.762 348.287L584.421 349.83L578.587 375.872L578.246 377.415L572.412 403.429L572.058 404.972L566.224 431L565.87 432.557L560.154 458.052H558.673L564.402 432.557L564.743 431L570.577 404.972L570.931 403.429L576.752 377.415L577.106 375.872L582.953 349.83L583.294 348.287L588.905 323.212H590.399Z" fill="#EBEBEB"/>
<path d="M616.855 323.212L611.231 348.287L610.877 349.83L605.043 375.872L604.702 377.415L598.868 403.429L598.527 404.972L592.68 431L592.326 432.557L586.61 458.052H585.129L590.858 432.557L591.212 431L597.033 404.972L597.387 403.429L603.221 377.415L603.562 375.872L609.409 349.83L609.749 348.287L615.374 323.212H616.855Z" fill="#EBEBEB"/>
<path d="M643.298 323.212L637.674 348.287L637.32 349.83L631.486 375.872L631.145 377.415L625.311 403.429L624.97 404.972L619.123 431L618.769 432.557L613.053 458.052H611.572L617.301 432.557L617.655 431L623.476 404.972L623.83 403.429L629.663 377.415L630.004 375.872L635.851 349.83L636.192 348.287L641.816 323.212H643.298Z" fill="#EBEBEB"/>
<path d="M669.754 323.212L664.13 348.287L663.776 349.83L657.955 375.872L657.601 377.415L651.767 403.429L651.426 404.972L645.579 431L645.238 432.557L639.522 458.052H638.028L643.757 432.557L644.111 431L649.945 404.972L650.286 403.429L656.119 377.415L656.46 375.872L662.307 349.83L662.648 348.287L668.272 323.212H669.754Z" fill="#EBEBEB"/>
<path d="M696.197 323.212L690.572 348.287L690.219 349.83L684.398 375.872L684.044 377.415L678.21 403.429L677.869 404.972L672.022 431L671.681 432.557L665.965 458.052H664.471L670.2 432.557L670.554 431L676.387 404.972L676.728 403.429L682.562 377.415L682.903 375.872L688.75 349.83L689.104 348.287L694.715 323.212H696.197Z" fill="#EBEBEB"/>
<path d="M716.766 348.287L716.425 349.83H530.788L531.129 348.287H716.766Z" fill="#EBEBEB"/>
<path d="M710.591 375.872L710.251 377.415H524.6L524.954 375.872H710.591Z" fill="#EBEBEB"/>
<path d="M704.417 403.429L704.063 404.972H518.412L518.766 403.429H704.417Z" fill="#EBEBEB"/>
<path d="M698.216 431L697.875 432.557H512.224L512.565 431H698.216Z" fill="#EBEBEB"/>
<path d="M554.359 378.265L551.574 380.67L567.734 402.077L570.518 399.672L554.359 378.265Z" fill="#C7C7C7"/>
<path d="M570.811 378.055L548.449 399.86L550.86 402.689L573.222 380.885L570.811 378.055Z" fill="#C7C7C7"/>
<path d="M613.044 351.438L610.26 353.843L626.419 375.25L629.204 372.845L613.044 351.438Z" fill="#C7C7C7"/>
<path d="M629.503 351.237L607.142 373.041L609.553 375.871L631.914 354.066L629.503 351.237Z" fill="#C7C7C7"/>
<path d="M539.008 375.395L532.178 362.619L535.285 360.712L539.559 368.706L555.133 348.61L557.886 351.05L539.008 375.395Z" fill="#FFC727"/>
<path d="M572.058 456.594L565.228 443.818L568.335 441.911L572.596 449.904L588.17 429.808L590.924 432.248L572.058 456.594Z" fill="#FFC727"/>
<path d="M666.044 378.579C662.732 380.526 659.681 382.941 656.972 385.759C654.35 388.564 652.055 391.972 651.728 395.8C651.593 396.692 651.63 397.604 651.837 398.479C652.045 399.355 652.418 400.176 652.934 400.891C654.142 402.233 655.7 403.156 657.404 403.541C660.995 404.347 664.712 404.246 668.259 403.247C671.849 402.431 675.217 400.747 678.105 398.324C679.506 397.124 680.67 395.636 681.527 393.949C682.379 392.329 682.749 390.47 682.588 388.62C682.44 387.712 682.12 386.846 681.649 386.075C681.178 385.304 680.566 384.643 679.848 384.132C678.343 383.016 676.645 382.229 674.854 381.818C671.18 380.892 667.351 380.936 663.697 381.944C667.326 380.524 671.239 380.137 675.05 380.823C677.007 381.163 678.879 381.921 680.556 383.052C681.44 383.641 682.205 384.412 682.809 385.319C683.412 386.227 683.84 387.253 684.07 388.339C684.38 390.548 684.002 392.805 682.995 394.762C682.063 396.677 680.784 398.375 679.232 399.755C676.14 402.401 672.535 404.277 668.68 405.247C664.825 406.217 660.817 406.257 656.945 405.364C654.926 404.858 653.098 403.709 651.701 402.069C651.027 401.171 650.575 400.105 650.39 398.969C650.233 397.877 650.233 396.766 650.39 395.674C650.993 391.312 653.602 387.82 656.434 385.114C659.317 382.439 662.556 380.236 666.044 378.579Z" fill="#FFC727"/>
<path d="M558.149 330.196H538.431L538.982 327.616H558.699L558.149 330.196Z" fill="#C7C7C7"/>
<path d="M549.076 334.6H537.487L538.038 332.033H549.627L549.076 334.6Z" fill="#C7C7C7"/>
<path d="M638.29 411.226H626.294L626.845 408.66H638.841L638.29 411.226Z" fill="#C7C7C7"/>
<path d="M636.389 420.216H624.393L624.944 417.649H636.953L636.389 420.216Z" fill="#C7C7C7"/>
<path d="M644.15 415.644H625.337L625.901 413.064H644.701L644.15 415.644Z" fill="#C7C7C7"/>
<path d="M669.36 391.411H657.365L657.915 388.83H669.924L669.36 391.411Z" fill="#C7C7C7"/>
<path d="M675.221 395.814H656.408L656.972 393.248H675.771L675.221 395.814Z" fill="#C7C7C7"/>
<path d="M508.252 343.813L519.828 334.558C521.129 333.52 522.056 332.034 522.45 330.35C522.606 329.716 522.636 329.055 522.539 328.408C522.442 327.76 522.22 327.142 521.886 326.592C521.493 325.996 520.967 325.514 520.356 325.191C519.745 324.867 519.067 324.713 518.386 324.741C516.968 324.741 515.588 325.233 514.453 326.143L513.247 327.111C513.184 327.186 513.107 327.246 513.022 327.287C512.936 327.328 512.843 327.349 512.749 327.349C512.655 327.349 512.562 327.328 512.476 327.287C512.39 327.246 512.313 327.186 512.251 327.111C512.201 327.023 512.169 326.925 512.156 326.823C512.142 326.722 512.148 326.618 512.172 326.519C512.197 326.42 512.239 326.327 512.298 326.245C512.356 326.164 512.429 326.096 512.513 326.045L513.719 325.035C515.145 323.88 516.873 323.233 518.661 323.184C519.537 323.134 520.411 323.327 521.196 323.745C521.982 324.163 522.653 324.791 523.145 325.568C523.576 326.267 523.864 327.056 523.988 327.883C524.112 328.71 524.071 329.556 523.866 330.364C523.358 332.499 522.177 334.381 520.523 335.693L510.612 343.617H520.3C520.389 343.617 520.476 343.639 520.555 343.682C520.634 343.725 520.703 343.787 520.755 343.864C520.807 343.94 520.842 344.029 520.857 344.122C520.871 344.216 520.864 344.312 520.838 344.402C520.786 344.61 520.674 344.794 520.519 344.93C520.364 345.066 520.173 345.146 519.972 345.16H508.449C508.359 345.169 508.268 345.153 508.185 345.114C508.102 345.075 508.031 345.013 507.977 344.935C507.885 344.745 507.863 344.525 507.914 344.318C507.965 344.111 508.085 343.931 508.252 343.813Z" fill="#A6A6A6"/>
<path d="M502.523 371.819C503.11 368.987 504.339 366.352 506.102 364.148C506.817 363.204 507.704 362.425 508.709 361.858C509.714 361.292 510.817 360.95 511.949 360.852C512.907 360.867 513.84 361.188 514.625 361.776C515.41 362.364 516.013 363.19 516.354 364.148C517.21 366.605 517.329 369.286 516.695 371.819C516.088 374.649 514.836 377.275 513.05 379.462C512.344 380.409 511.465 381.192 510.466 381.763C509.468 382.335 508.371 382.683 507.243 382.786C506.281 382.771 505.345 382.446 504.559 381.853C503.773 381.26 503.173 380.427 502.838 379.462C501.985 377.013 501.875 374.339 502.523 371.819ZM503.965 371.819C503.388 374.059 503.475 376.436 504.214 378.621C504.464 379.371 504.918 380.024 505.519 380.494C506.12 380.964 506.839 381.23 507.583 381.257C508.461 381.157 509.31 380.867 510.081 380.407C510.851 379.947 511.527 379.325 512.067 378.579C513.637 376.64 514.74 374.319 515.279 371.819C515.84 369.573 515.734 367.197 514.977 365.017C514.74 364.262 514.29 363.603 513.689 363.131C513.089 362.659 512.366 362.397 511.621 362.381C510.742 362.462 509.887 362.738 509.113 363.192C508.339 363.646 507.661 364.268 507.125 365.017C505.565 366.973 504.48 369.309 503.965 371.819Z" fill="#A6A6A6"/>
<path d="M492.009 419.08L503.585 409.824C504.886 408.787 505.812 407.301 506.207 405.617C506.362 404.983 506.393 404.321 506.296 403.674C506.198 403.027 505.976 402.409 505.643 401.858C505.25 401.27 504.728 400.794 504.122 400.473C503.515 400.153 502.845 399.998 502.169 400.021C500.751 400.021 499.371 400.513 498.236 401.424L497.03 402.391C496.967 402.466 496.89 402.526 496.805 402.567C496.719 402.608 496.626 402.63 496.532 402.63C496.438 402.63 496.345 402.608 496.259 402.567C496.173 402.526 496.096 402.466 496.034 402.391C495.984 402.303 495.952 402.205 495.939 402.104C495.925 402.002 495.931 401.899 495.955 401.799C495.98 401.7 496.022 401.607 496.081 401.526C496.139 401.444 496.212 401.376 496.296 401.326L497.502 400.316C498.928 399.161 500.656 398.513 502.444 398.465C503.307 398.424 504.165 398.619 504.938 399.031C505.711 399.443 506.373 400.059 506.862 400.821C507.294 401.52 507.581 402.309 507.705 403.136C507.83 403.963 507.788 404.808 507.583 405.617C507.075 407.752 505.894 409.634 504.24 410.946L494.316 418.869H504.017C504.106 418.869 504.194 418.892 504.273 418.935C504.352 418.978 504.42 419.04 504.472 419.116C504.525 419.193 504.56 419.281 504.574 419.375C504.588 419.469 504.582 419.564 504.555 419.655C504.503 419.862 504.392 420.047 504.236 420.183C504.081 420.319 503.89 420.399 503.69 420.412H492.205C492.115 420.421 492.025 420.406 491.942 420.366C491.859 420.327 491.787 420.266 491.733 420.188C491.646 419.999 491.626 419.782 491.676 419.578C491.727 419.375 491.845 419.197 492.009 419.08Z" fill="#A6A6A6"/>
<path d="M486.28 447.086C486.878 444.249 488.121 441.614 489.898 439.415C490.61 438.463 491.495 437.676 492.5 437.102C493.506 436.528 494.61 436.179 495.745 436.077C496.703 436.091 497.636 436.413 498.421 437C499.206 437.588 499.809 438.414 500.15 439.372C500.999 441.831 501.118 444.51 500.491 447.044C499.878 449.872 498.627 452.496 496.846 454.687C496.136 455.638 495.25 456.424 494.244 456.996C493.239 457.568 492.134 457.913 490.999 458.01C490.037 457.998 489.101 457.673 488.314 457.08C487.528 456.487 486.928 455.652 486.594 454.687C485.75 452.25 485.64 449.592 486.28 447.086ZM487.722 447.086C487.144 449.326 487.231 451.702 487.971 453.887C488.223 454.636 488.679 455.286 489.279 455.756C489.879 456.225 490.597 456.493 491.34 456.524C492.215 456.428 493.062 456.146 493.832 455.693C494.603 455.24 495.28 454.626 495.824 453.887C497.41 451.942 498.518 449.604 499.049 447.086C499.624 444.842 499.523 442.462 498.76 440.284C498.523 439.528 498.073 438.869 497.472 438.398C496.872 437.926 496.149 437.664 495.404 437.648C494.524 437.728 493.67 438.004 492.896 438.458C492.121 438.912 491.444 439.534 490.908 440.284C489.348 442.239 488.263 444.575 487.748 447.086H487.722Z" fill="#A6A6A6"/>
<path d="M725.642 317.897C725.642 317.897 720.031 343.912 717.658 354.934C715.285 365.957 705.505 372.969 705.505 372.969H651.95C651.95 372.969 661.481 360.838 663.422 351.835L670.75 317.897H725.642Z" fill="#FFC727"/>
<path d="M678.433 336.871L675.627 340.027C675.573 340.092 675.498 340.132 675.417 340.139C675.381 340.142 675.346 340.133 675.315 340.113C675.285 340.092 675.261 340.062 675.247 340.027L673.805 336.885L672.494 342.705C672.477 342.771 672.442 342.83 672.392 342.872C672.343 342.915 672.282 342.94 672.219 342.944C672.19 342.948 672.161 342.944 672.134 342.933C672.107 342.921 672.083 342.903 672.065 342.879C672.047 342.855 672.034 342.827 672.029 342.796C672.024 342.766 672.026 342.735 672.035 342.705L673.451 336.142C673.458 336.101 673.474 336.063 673.497 336.029C673.519 335.995 673.548 335.967 673.582 335.946C673.602 335.924 673.625 335.907 673.651 335.895C673.677 335.884 673.705 335.877 673.733 335.877C673.761 335.877 673.789 335.884 673.815 335.895C673.84 335.907 673.864 335.924 673.883 335.946L675.496 339.438L678.59 335.946C678.637 335.902 678.698 335.879 678.76 335.879C678.823 335.879 678.883 335.902 678.931 335.946C678.937 335.974 678.937 336.002 678.931 336.03C678.937 336.072 678.937 336.114 678.931 336.156L677.515 342.719C677.498 342.785 677.463 342.844 677.413 342.886C677.364 342.929 677.303 342.954 677.24 342.958C677.212 342.959 677.185 342.954 677.16 342.941C677.135 342.929 677.113 342.91 677.096 342.887C677.079 342.863 677.068 342.836 677.063 342.806C677.059 342.777 677.061 342.748 677.069 342.719L678.433 336.871Z" fill="black"/>
<path d="M681.002 336.1C681.021 336.033 681.059 335.974 681.111 335.932C681.163 335.889 681.225 335.865 681.291 335.862H684.699C684.727 335.86 684.754 335.866 684.779 335.878C684.804 335.891 684.826 335.91 684.843 335.933C684.86 335.957 684.871 335.984 684.876 336.013C684.88 336.042 684.878 336.072 684.87 336.1C684.855 336.171 684.819 336.234 684.766 336.28C684.714 336.325 684.649 336.351 684.581 336.353H681.409L680.806 339.157H683.585C683.613 339.158 683.641 339.166 683.665 339.18C683.69 339.194 683.712 339.214 683.728 339.239C683.745 339.263 683.756 339.291 683.76 339.321C683.765 339.351 683.763 339.381 683.755 339.41C683.741 339.478 683.707 339.54 683.657 339.585C683.607 339.631 683.545 339.658 683.48 339.662H680.701L680.098 342.467H683.27C683.299 342.465 683.329 342.47 683.355 342.483C683.382 342.496 683.405 342.517 683.422 342.542C683.439 342.567 683.45 342.597 683.453 342.628C683.456 342.659 683.452 342.691 683.441 342.719C683.426 342.786 683.391 342.846 683.341 342.889C683.291 342.932 683.229 342.957 683.165 342.958H679.731C679.704 342.957 679.678 342.95 679.655 342.936C679.632 342.923 679.611 342.904 679.596 342.881C679.581 342.858 679.571 342.831 679.567 342.803C679.563 342.775 679.565 342.746 679.573 342.719L681.002 336.1Z" fill="black"/>
<path d="M686.626 336.1C686.643 336.034 686.678 335.976 686.728 335.933C686.777 335.89 686.838 335.865 686.902 335.862H690.31C690.338 335.861 690.366 335.867 690.391 335.88C690.416 335.892 690.439 335.91 690.456 335.933C690.474 335.956 690.486 335.983 690.493 336.012C690.499 336.041 690.5 336.071 690.494 336.1C690.477 336.17 690.44 336.232 690.388 336.277C690.336 336.322 690.272 336.349 690.205 336.353H687.02L686.417 339.157H689.196C689.224 339.158 689.252 339.166 689.276 339.18C689.301 339.194 689.323 339.214 689.339 339.239C689.356 339.263 689.367 339.291 689.371 339.321C689.376 339.351 689.374 339.381 689.366 339.41C689.352 339.48 689.315 339.544 689.263 339.589C689.211 339.635 689.145 339.661 689.078 339.662H686.312L685.709 342.467H688.881C689.012 342.467 689.078 342.579 689.052 342.719C689.035 342.787 688.997 342.848 688.945 342.891C688.893 342.934 688.829 342.957 688.763 342.958H685.342C685.315 342.957 685.289 342.95 685.266 342.936C685.243 342.923 685.222 342.904 685.207 342.881C685.192 342.858 685.182 342.831 685.178 342.803C685.174 342.775 685.176 342.746 685.184 342.719L686.626 336.1Z" fill="black"/>
<path d="M693.902 336.353H691.91C691.88 336.354 691.851 336.348 691.825 336.335C691.798 336.321 691.775 336.302 691.757 336.277C691.739 336.252 691.727 336.223 691.722 336.193C691.716 336.162 691.718 336.13 691.726 336.1C691.747 336.034 691.785 335.977 691.837 335.934C691.888 335.892 691.95 335.866 692.015 335.862H696.459C696.487 335.861 696.514 335.867 696.54 335.88C696.565 335.892 696.587 335.91 696.605 335.933C696.622 335.956 696.635 335.983 696.642 336.012C696.648 336.041 696.648 336.071 696.642 336.1C696.626 336.17 696.589 336.232 696.537 336.277C696.485 336.322 696.421 336.349 696.354 336.353H694.361L693.05 342.705C693.034 342.771 692.998 342.83 692.949 342.872C692.899 342.915 692.838 342.94 692.775 342.944C692.747 342.945 692.72 342.938 692.694 342.926C692.669 342.914 692.647 342.895 692.629 342.872C692.611 342.849 692.599 342.822 692.592 342.794C692.586 342.765 692.585 342.735 692.591 342.705L693.902 336.353Z" fill="black"/>
<path d="M698.452 336.1C698.468 336.034 698.504 335.976 698.553 335.933C698.602 335.89 698.663 335.865 698.727 335.862C698.755 335.861 698.782 335.867 698.808 335.88C698.833 335.892 698.855 335.91 698.873 335.933C698.891 335.956 698.903 335.983 698.91 336.012C698.916 336.041 698.916 336.071 698.91 336.1L697.508 342.705C697.486 342.773 697.446 342.833 697.392 342.875C697.338 342.918 697.273 342.942 697.206 342.944C697.179 342.945 697.151 342.94 697.126 342.927C697.101 342.915 697.079 342.896 697.062 342.872C697.046 342.849 697.034 342.822 697.03 342.793C697.025 342.763 697.027 342.734 697.036 342.705L698.452 336.1Z" fill="black"/>
<path d="M701.585 336.9L700.274 342.705C700.257 342.771 700.222 342.83 700.172 342.872C700.123 342.915 700.062 342.94 699.999 342.944C699.971 342.945 699.943 342.94 699.918 342.927C699.893 342.915 699.872 342.896 699.855 342.872C699.838 342.849 699.827 342.822 699.822 342.792C699.818 342.763 699.82 342.734 699.828 342.705L701.231 336.198C701.228 336.144 701.24 336.089 701.266 336.042C701.291 335.995 701.329 335.956 701.375 335.932C701.493 335.932 701.637 335.932 701.677 335.932L704.417 341.892L705.662 336.114C705.679 336.048 705.714 335.99 705.764 335.947C705.813 335.904 705.874 335.879 705.937 335.876C705.965 335.875 705.993 335.881 706.018 335.894C706.043 335.906 706.066 335.924 706.083 335.947C706.101 335.97 706.114 335.997 706.12 336.026C706.127 336.055 706.127 336.085 706.121 336.114L704.705 342.649C704.686 342.716 704.648 342.775 704.596 342.818C704.545 342.86 704.482 342.885 704.417 342.888C704.386 342.889 704.355 342.882 704.328 342.867C704.3 342.852 704.277 342.831 704.259 342.804L701.585 336.9Z" fill="black"/>
<path d="M710.408 339.76C710.379 339.764 710.35 339.76 710.323 339.749C710.297 339.738 710.273 339.719 710.254 339.695C710.236 339.672 710.224 339.643 710.218 339.613C710.213 339.583 710.215 339.551 710.224 339.522C710.239 339.449 710.278 339.384 710.333 339.338C710.388 339.292 710.456 339.268 710.526 339.27H712.597C712.624 339.272 712.65 339.281 712.673 339.296C712.696 339.311 712.716 339.332 712.73 339.356C712.744 339.381 712.752 339.409 712.754 339.438C712.756 339.466 712.752 339.495 712.741 339.522L712.217 341.948C712.193 342.022 712.147 342.086 712.086 342.13C711.404 342.623 710.602 342.892 709.779 342.902C709.361 342.92 708.946 342.832 708.567 342.644C708.188 342.456 707.856 342.175 707.6 341.822C707.343 341.469 707.169 341.056 707.092 340.617C707.015 340.178 707.037 339.726 707.157 339.298C707.407 338.295 707.953 337.406 708.714 336.762C709.474 336.117 710.408 335.753 711.378 335.721C711.739 335.71 712.098 335.774 712.436 335.911C712.773 336.048 713.082 336.256 713.345 336.521C713.386 336.566 713.41 336.626 713.41 336.689C713.41 336.752 713.386 336.813 713.345 336.857C713.297 336.901 713.237 336.925 713.174 336.925C713.112 336.925 713.051 336.901 713.004 336.857C712.776 336.628 712.508 336.45 712.216 336.332C711.923 336.214 711.612 336.159 711.299 336.17C710.464 336.204 709.661 336.521 709.005 337.075C708.35 337.63 707.877 338.394 707.655 339.256C707.551 339.629 707.533 340.024 707.602 340.407C707.671 340.789 707.825 341.149 708.052 341.454C708.278 341.76 708.57 342.002 708.902 342.161C709.235 342.321 709.598 342.392 709.962 342.369C710.631 342.355 711.284 342.146 711.85 341.766L712.296 339.676L710.408 339.76Z" fill="black"/>
<path d="M669.557 348.736L668.495 349.325C668.452 349.337 668.407 349.337 668.364 349.325C668.328 349.328 668.293 349.318 668.262 349.298C668.231 349.278 668.207 349.248 668.194 349.213C668.173 349.146 668.178 349.073 668.207 349.009C668.237 348.946 668.288 348.898 668.351 348.876L669.806 348.035C669.832 348.02 669.86 348.011 669.889 348.008C669.919 348.005 669.948 348.008 669.976 348.017C670.004 348.026 670.03 348.041 670.053 348.061C670.075 348.081 670.094 348.105 670.108 348.133C670.127 348.192 670.127 348.256 670.108 348.315L668.666 354.864C668.649 354.934 668.612 354.996 668.56 355.041C668.508 355.086 668.444 355.113 668.377 355.117C668.349 355.116 668.322 355.108 668.297 355.094C668.272 355.08 668.25 355.06 668.234 355.035C668.217 355.011 668.206 354.983 668.202 354.953C668.197 354.923 668.199 354.893 668.207 354.864L669.557 348.736Z" fill="black"/>
<path d="M675.719 348.469L673.595 350.348C673.99 350.435 674.343 350.669 674.591 351.008C674.753 351.251 674.862 351.528 674.912 351.822C674.962 352.115 674.951 352.416 674.88 352.704C674.713 353.368 674.354 353.959 673.855 354.392C673.356 354.825 672.742 355.078 672.1 355.117C671.827 355.125 671.555 355.064 671.307 354.94C671.059 354.816 670.841 354.632 670.671 354.401C670.593 354.317 670.671 354.149 670.75 354.051C670.771 354.027 670.796 354.007 670.825 353.994C670.853 353.981 670.883 353.974 670.914 353.974C670.945 353.974 670.975 353.981 671.003 353.994C671.032 354.007 671.057 354.027 671.078 354.051C671.216 354.229 671.391 354.371 671.589 354.466C671.786 354.561 672.002 354.606 672.218 354.598C672.699 354.569 673.158 354.377 673.529 354.051C673.943 353.697 674.23 353.202 674.342 352.648C674.401 352.422 674.411 352.184 674.37 351.953C674.329 351.722 674.239 351.504 674.106 351.316C673.976 351.13 673.806 350.981 673.609 350.884C673.412 350.786 673.195 350.742 672.979 350.755C672.945 350.755 672.912 350.745 672.882 350.728C672.853 350.711 672.827 350.687 672.808 350.657C672.777 350.597 672.768 350.526 672.783 350.459C672.797 350.391 672.834 350.332 672.887 350.292L674.932 348.469H672.389C672.36 348.471 672.331 348.464 672.304 348.451C672.278 348.438 672.254 348.418 672.236 348.394C672.218 348.369 672.206 348.34 672.201 348.309C672.195 348.278 672.197 348.247 672.205 348.217C672.225 348.146 672.264 348.084 672.318 348.039C672.372 347.993 672.438 347.967 672.507 347.964H675.601C675.63 347.963 675.659 347.969 675.686 347.982C675.712 347.996 675.735 348.015 675.753 348.04C675.771 348.065 675.784 348.094 675.789 348.124C675.794 348.155 675.793 348.187 675.784 348.217C675.791 348.254 675.791 348.292 675.784 348.329L675.719 348.469Z" fill="black"/>
<path d="M679.049 350.391C679.031 350.457 678.996 350.516 678.947 350.561C678.898 350.606 678.838 350.635 678.774 350.643H678.17L677.397 354.247C677.387 354.29 677.386 354.335 677.395 354.378C677.403 354.421 677.421 354.462 677.446 354.497C677.471 354.532 677.504 354.56 677.54 354.58C677.577 354.6 677.618 354.611 677.659 354.612C677.688 354.613 677.715 354.621 677.741 354.635C677.766 354.649 677.788 354.669 677.805 354.693C677.823 354.717 677.835 354.744 677.842 354.774C677.848 354.804 677.848 354.834 677.843 354.864C677.821 354.931 677.783 354.99 677.732 355.034C677.681 355.079 677.62 355.107 677.554 355.117C677.453 355.125 677.351 355.106 677.258 355.062C677.165 355.017 677.083 354.949 677.021 354.863C676.959 354.777 676.917 354.675 676.901 354.568C676.884 354.46 676.892 354.35 676.925 354.247L677.699 350.643H677.122C676.899 350.643 676.925 350.517 676.951 350.391C676.953 350.355 676.961 350.32 676.976 350.288C676.991 350.256 677.012 350.227 677.039 350.205C677.065 350.182 677.095 350.166 677.127 350.157C677.16 350.148 677.194 350.146 677.227 350.152H677.843L678.249 348.301C678.269 348.237 678.305 348.181 678.354 348.139C678.403 348.096 678.462 348.07 678.524 348.063C678.553 348.062 678.581 348.069 678.606 348.081C678.632 348.093 678.655 348.111 678.674 348.134C678.692 348.156 678.706 348.183 678.714 348.212C678.723 348.241 678.725 348.271 678.721 348.301L678.315 350.152H678.918C678.965 350.165 679.005 350.198 679.029 350.242C679.054 350.287 679.061 350.34 679.049 350.391Z" fill="black"/>
<path d="M684.07 352.101C684.111 351.923 684.112 351.737 684.071 351.558C684.031 351.38 683.95 351.215 683.837 351.077C683.723 350.939 683.58 350.833 683.42 350.767C683.26 350.701 683.087 350.678 682.916 350.699C682.516 350.691 682.125 350.824 681.803 351.078C681.481 351.331 681.245 351.691 681.133 352.101L680.53 354.906C680.513 354.94 680.488 354.969 680.459 354.99C680.429 355.012 680.395 355.027 680.36 355.032C680.329 355.035 680.298 355.029 680.27 355.014C680.243 354.999 680.219 354.976 680.203 354.948C680.197 354.921 680.197 354.892 680.203 354.864C680.197 354.836 680.197 354.808 680.203 354.78L680.792 351.975V351.891L681.592 348.133C681.613 348.067 681.651 348.009 681.703 347.967C681.754 347.924 681.816 347.899 681.881 347.894C681.908 347.894 681.936 347.9 681.961 347.912C681.987 347.924 682.009 347.943 682.027 347.966C682.044 347.989 682.057 348.016 682.063 348.045C682.07 348.074 682.07 348.104 682.064 348.133L681.5 350.755C681.938 350.303 682.518 350.042 683.126 350.026C683.359 350 683.595 350.035 683.812 350.13C684.03 350.224 684.222 350.374 684.372 350.567C684.523 350.759 684.626 350.989 684.674 351.234C684.722 351.48 684.713 351.734 684.647 351.975L684.044 354.78C684.029 354.851 683.993 354.914 683.94 354.96C683.888 355.005 683.823 355.031 683.755 355.032C683.727 355.032 683.7 355.024 683.675 355.01C683.65 354.996 683.628 354.976 683.612 354.951C683.595 354.927 683.584 354.899 683.58 354.869C683.575 354.839 683.577 354.809 683.585 354.78L684.07 352.101Z" fill="black"/>
<path d="M686.325 351.583C686.337 351.529 686.366 351.482 686.406 351.449C686.447 351.416 686.497 351.399 686.548 351.4H688.567C688.588 351.4 688.609 351.405 688.629 351.414C688.648 351.423 688.665 351.437 688.679 351.455C688.693 351.472 688.703 351.493 688.708 351.515C688.714 351.537 688.715 351.56 688.711 351.583C688.7 351.639 688.672 351.689 688.632 351.727C688.592 351.765 688.541 351.788 688.488 351.793H686.469C686.445 351.795 686.42 351.79 686.398 351.779C686.376 351.768 686.357 351.751 686.343 351.73C686.328 351.709 686.319 351.685 686.316 351.659C686.313 351.633 686.316 351.607 686.325 351.583Z" fill="black"/>
<path d="M691.503 348.736L690.441 349.325C690.398 349.337 690.353 349.337 690.31 349.325C690.274 349.328 690.239 349.318 690.208 349.298C690.177 349.278 690.154 349.248 690.14 349.213C690.119 349.146 690.124 349.073 690.153 349.009C690.183 348.946 690.235 348.898 690.297 348.876L691.752 348.035C691.778 348.02 691.807 348.011 691.836 348.008C691.865 348.005 691.894 348.008 691.922 348.017C691.95 348.026 691.976 348.041 691.999 348.061C692.021 348.081 692.04 348.105 692.054 348.133C692.067 348.193 692.067 348.255 692.054 348.315L690.651 354.822C690.634 354.892 690.598 354.954 690.546 354.999C690.494 355.044 690.43 355.071 690.363 355.075C690.335 355.074 690.307 355.066 690.282 355.052C690.257 355.038 690.236 355.018 690.219 354.993C690.203 354.969 690.192 354.941 690.187 354.911C690.183 354.881 690.184 354.851 690.192 354.822L691.503 348.736Z" fill="black"/>
<path d="M693.076 351.569C693.273 350.653 693.674 349.801 694.243 349.086C694.475 348.782 694.761 348.531 695.086 348.348C695.41 348.164 695.766 348.053 696.131 348.02C696.438 348.037 696.733 348.151 696.978 348.348C697.224 348.546 697.408 348.818 697.508 349.128C697.78 349.924 697.821 350.789 697.626 351.611C697.427 352.524 697.022 353.372 696.446 354.079C696.216 354.387 695.931 354.642 695.606 354.827C695.281 355.013 694.925 355.126 694.558 355.159C694.245 355.158 693.939 355.054 693.684 354.861C693.428 354.667 693.234 354.394 693.129 354.079C692.866 353.269 692.848 352.391 693.076 351.569ZM693.548 351.569C693.356 352.293 693.384 353.064 693.627 353.77C693.709 354.011 693.856 354.22 694.05 354.37C694.244 354.52 694.476 354.605 694.715 354.612C694.998 354.582 695.272 354.492 695.522 354.348C695.772 354.203 695.992 354.007 696.17 353.77C696.681 353.14 697.037 352.383 697.206 351.569C697.395 350.843 697.363 350.072 697.114 349.367C697.036 349.124 696.889 348.912 696.695 348.762C696.5 348.611 696.266 348.529 696.026 348.525C695.742 348.549 695.466 348.637 695.216 348.782C694.965 348.927 694.745 349.126 694.571 349.367C694.074 350.001 693.731 350.758 693.575 351.569H693.548Z" fill="black"/>
<path d="M703.433 353.336H700.418L699.461 355.004C699.436 355.052 699.399 355.092 699.356 355.122C699.313 355.151 699.263 355.169 699.212 355.173H699.133C699.107 355.159 699.083 355.139 699.065 355.114C699.047 355.089 699.034 355.059 699.027 355.028C699.021 354.997 699.022 354.965 699.029 354.934C699.035 354.903 699.049 354.875 699.068 354.85L702.791 348.273C702.821 348.228 702.86 348.19 702.905 348.163C702.951 348.137 703.001 348.121 703.053 348.119C703.145 348.119 703.237 348.119 703.237 348.273L704.128 354.85C704.128 354.919 704.11 354.986 704.075 355.043C704.04 355.1 703.99 355.145 703.932 355.173H703.84C703.797 355.168 703.756 355.15 703.723 355.12C703.69 355.09 703.667 355.049 703.656 355.004L703.433 353.336ZM700.693 352.845H703.315L702.804 349.03L700.693 352.845Z" fill="black"/>
<path d="M711.929 349.03L709.136 352.186C709.109 352.221 709.075 352.249 709.037 352.268C708.998 352.288 708.956 352.298 708.913 352.298C708.822 352.298 708.769 352.298 708.743 352.186L707.288 349.044L706.042 354.864C706.026 354.934 705.989 354.996 705.937 355.041C705.885 355.086 705.821 355.113 705.754 355.117C705.725 355.118 705.695 355.112 705.669 355.099C705.642 355.085 705.619 355.066 705.601 355.041C705.583 355.016 705.571 354.987 705.566 354.957C705.56 354.926 705.562 354.894 705.57 354.864L706.986 348.301C707.015 348.226 707.066 348.162 707.13 348.119C707.155 348.101 707.183 348.088 707.213 348.082C707.242 348.075 707.272 348.075 707.302 348.082C707.331 348.089 707.359 348.101 707.384 348.12C707.408 348.138 707.429 348.162 707.445 348.189L709.044 351.681L712.151 348.189C712.188 348.136 712.242 348.099 712.303 348.086C712.363 348.073 712.426 348.085 712.479 348.119C712.483 348.147 712.483 348.175 712.479 348.203C712.492 348.244 712.492 348.288 712.479 348.329L711.063 354.892C711.049 354.961 711.015 355.022 710.965 355.068C710.915 355.113 710.853 355.14 710.788 355.145C710.759 355.146 710.73 355.14 710.703 355.127C710.677 355.114 710.653 355.094 710.635 355.069C710.617 355.044 710.605 355.015 710.6 354.985C710.595 354.954 710.596 354.922 710.605 354.892L711.929 349.03Z" fill="black"/>
<path d="M514.099 299.736C513.168 299.708 512.253 299.471 511.413 299.041C510.573 298.611 509.827 297.998 509.222 297.24C507.911 295.627 506.063 291.925 507.911 285.207C509.655 279.051 513.837 276.512 517.088 277.172C519.579 277.676 522.332 280.383 521.847 286.343C521.834 286.566 521.779 286.783 521.685 286.983C521.592 287.182 521.462 287.359 521.302 287.503C521.143 287.647 520.958 287.755 520.759 287.821C520.56 287.887 520.35 287.909 520.143 287.886C519.725 287.843 519.34 287.627 519.07 287.283C518.801 286.939 518.668 286.496 518.701 286.049C518.95 282.949 518.098 280.818 516.498 280.439C514.689 280.074 512.119 281.94 510.94 286.133C509.865 289.961 510.087 293.145 511.582 294.982C511.895 295.425 512.302 295.783 512.769 296.027C513.236 296.271 513.75 296.393 514.269 296.384C514.483 296.334 514.704 296.332 514.919 296.378C515.133 296.424 515.336 296.517 515.516 296.651C515.695 296.785 515.847 296.957 515.961 297.156C516.075 297.356 516.149 297.578 516.179 297.81C516.209 298.042 516.194 298.278 516.135 298.503C516.075 298.728 515.973 298.938 515.834 299.119C515.696 299.299 515.523 299.448 515.329 299.554C515.134 299.66 514.92 299.722 514.702 299.736C514.501 299.748 514.3 299.748 514.099 299.736Z" fill="#A6A6A6"/>
<path d="M533.633 299.736C532.693 299.717 531.767 299.485 530.917 299.055C530.067 298.625 529.313 298.006 528.704 297.24C527.393 295.627 525.544 291.925 527.393 285.207C529.123 279.051 533.318 276.512 536.57 277.172C539.06 277.676 541.814 280.383 541.328 286.343C541.314 286.565 541.258 286.782 541.163 286.98C541.069 287.179 540.939 287.355 540.78 287.499C540.621 287.642 540.437 287.751 540.239 287.817C540.04 287.884 539.831 287.907 539.624 287.886C539.209 287.833 538.829 287.608 538.567 287.259C538.305 286.911 538.181 286.466 538.221 286.021C538.471 282.921 537.618 280.79 536.019 280.411C534.197 280.046 531.64 281.912 530.46 286.105C529.372 289.933 529.608 293.117 531.103 294.954C531.416 295.397 531.823 295.755 532.29 295.999C532.757 296.243 533.271 296.365 533.79 296.356C534.004 296.306 534.225 296.304 534.439 296.35C534.654 296.396 534.857 296.489 535.037 296.623C535.216 296.756 535.367 296.929 535.482 297.128C535.596 297.328 535.67 297.55 535.7 297.782C535.73 298.014 535.715 298.25 535.655 298.475C535.596 298.7 535.494 298.91 535.355 299.09C535.216 299.271 535.044 299.42 534.849 299.526C534.654 299.632 534.441 299.694 534.223 299.708C534.027 299.729 533.83 299.738 533.633 299.736Z" fill="#A6A6A6"/>
<path d="M553.049 299.736C552.12 299.708 551.207 299.471 550.369 299.041C549.531 298.611 548.787 297.997 548.185 297.24C546.874 295.627 545.026 291.925 546.874 285.207C548.605 279.051 552.8 276.512 556.051 277.172C558.542 277.676 561.295 280.383 560.81 286.343C560.795 286.565 560.739 286.782 560.645 286.98C560.551 287.179 560.42 287.355 560.262 287.499C560.103 287.642 559.919 287.751 559.72 287.817C559.522 287.884 559.313 287.907 559.106 287.886C558.687 287.847 558.299 287.631 558.029 287.287C557.759 286.942 557.627 286.497 557.664 286.049C557.913 282.949 557.06 280.818 555.448 280.439C553.835 280.06 551.082 281.94 549.902 286.133C548.814 289.961 549.05 293.145 550.545 294.982C550.851 295.416 551.248 295.768 551.702 296.011C552.157 296.255 552.658 296.382 553.167 296.384C553.38 296.334 553.601 296.332 553.816 296.378C554.03 296.424 554.234 296.517 554.413 296.651C554.592 296.785 554.744 296.957 554.858 297.156C554.972 297.356 555.047 297.578 555.077 297.81C555.107 298.042 555.091 298.278 555.032 298.503C554.973 298.728 554.87 298.938 554.732 299.119C554.593 299.299 554.421 299.448 554.226 299.554C554.031 299.66 553.818 299.722 553.599 299.736C553.416 299.746 553.232 299.746 553.049 299.736Z" fill="#A6A6A6"/>
<path d="M572.53 299.736C571.609 299.705 570.705 299.467 569.876 299.037C569.047 298.607 568.312 297.994 567.719 297.24C566.408 295.627 564.546 291.925 566.408 285.207C568.138 279.051 572.334 276.512 575.585 277.172C578.076 277.676 580.829 280.383 580.357 286.343C580.339 286.564 580.28 286.779 580.184 286.976C580.089 287.173 579.958 287.347 579.799 287.49C579.64 287.633 579.456 287.74 579.259 287.807C579.061 287.874 578.853 287.898 578.646 287.879C578.439 287.86 578.238 287.797 578.054 287.694C577.871 287.592 577.707 287.452 577.574 287.282C577.441 287.112 577.34 286.915 577.278 286.704C577.215 286.492 577.192 286.27 577.21 286.049C577.446 282.949 576.607 280.818 574.995 280.439C573.382 280.06 570.629 281.94 569.449 286.133C568.361 289.961 568.597 293.145 570.092 294.982C570.398 295.417 570.794 295.769 571.249 296.013C571.704 296.256 572.205 296.383 572.714 296.384C572.927 296.334 573.148 296.332 573.363 296.378C573.577 296.424 573.781 296.517 573.96 296.651C574.139 296.785 574.291 296.957 574.405 297.156C574.519 297.356 574.594 297.578 574.624 297.81C574.654 298.042 574.638 298.278 574.579 298.503C574.52 298.728 574.417 298.938 574.279 299.119C574.14 299.299 573.968 299.448 573.773 299.554C573.578 299.66 573.365 299.722 573.146 299.736C572.941 299.748 572.735 299.748 572.53 299.736Z" fill="#A6A6A6"/>
<path d="M592.012 299.736C591.076 299.699 590.158 299.451 589.317 299.009C588.477 298.567 587.733 297.94 587.135 297.17C585.824 295.557 583.975 291.855 585.824 285.137C587.554 278.981 591.749 276.442 595.001 277.101C597.492 277.606 600.245 280.313 599.773 286.273C599.755 286.494 599.696 286.709 599.6 286.906C599.505 287.103 599.374 287.277 599.215 287.42C599.056 287.563 598.872 287.67 598.674 287.737C598.477 287.804 598.269 287.828 598.062 287.809C597.855 287.789 597.654 287.727 597.47 287.624C597.286 287.522 597.123 287.382 596.99 287.212C596.857 287.042 596.756 286.845 596.693 286.634C596.631 286.422 596.608 286.2 596.626 285.979C596.862 282.879 596.023 280.748 594.411 280.369C592.798 279.99 590.045 281.87 588.865 286.063C587.777 289.891 588 293.075 589.508 294.912C589.813 295.347 590.209 295.701 590.664 295.944C591.119 296.188 591.621 296.314 592.13 296.314C592.343 296.264 592.564 296.262 592.779 296.308C592.993 296.354 593.197 296.447 593.376 296.58C593.555 296.714 593.707 296.887 593.821 297.086C593.935 297.286 594.01 297.508 594.04 297.74C594.069 297.972 594.054 298.208 593.995 298.433C593.935 298.658 593.833 298.868 593.694 299.048C593.556 299.229 593.384 299.378 593.189 299.484C592.994 299.59 592.781 299.652 592.562 299.666C592.38 299.699 592.196 299.723 592.012 299.736Z" fill="#A6A6A6"/>
<path d="M611.493 299.736C610.557 299.699 609.639 299.451 608.799 299.009C607.958 298.567 607.215 297.94 606.616 297.17C605.305 295.557 603.457 291.855 605.305 285.137C607.036 278.981 611.231 276.442 614.482 277.101C616.973 277.606 619.726 280.313 619.254 286.273C619.238 286.496 619.18 286.712 619.084 286.911C618.989 287.109 618.857 287.286 618.698 287.429C618.538 287.573 618.353 287.681 618.153 287.747C617.954 287.814 617.745 287.837 617.537 287.816C617.119 287.773 616.734 287.556 616.464 287.213C616.195 286.869 616.062 286.426 616.095 285.979C616.344 282.879 615.505 280.748 613.892 280.369C612.083 280.004 609.513 281.87 608.334 286.063C607.259 289.891 607.481 293.075 608.976 294.912C609.29 295.354 609.697 295.712 610.164 295.955C610.63 296.199 611.144 296.322 611.664 296.314C612.062 296.289 612.455 296.425 612.764 296.696C613.073 296.967 613.274 297.353 613.329 297.776C613.384 298.199 613.287 298.629 613.059 298.979C612.83 299.33 612.486 299.575 612.096 299.666C611.897 299.702 611.695 299.725 611.493 299.736Z" fill="#A6A6A6"/>
<path d="M630.975 299.736C630.039 299.699 629.121 299.451 628.28 299.009C627.44 298.567 626.696 297.94 626.098 297.17C624.787 295.557 622.938 291.855 624.787 285.137C626.53 278.981 630.725 276.442 633.964 277.101C636.454 277.606 639.208 280.313 638.736 286.273C638.719 286.496 638.661 286.712 638.566 286.911C638.47 287.109 638.339 287.286 638.179 287.429C638.019 287.573 637.834 287.681 637.635 287.747C637.436 287.814 637.226 287.837 637.018 287.816C636.601 287.773 636.215 287.556 635.946 287.213C635.676 286.869 635.543 286.426 635.576 285.979C635.825 282.879 634.973 280.748 633.374 280.369C631.564 280.004 628.995 281.87 627.815 286.063C626.74 289.891 626.963 293.075 628.457 294.912C628.764 295.346 629.16 295.698 629.615 295.941C630.07 296.184 630.571 296.312 631.079 296.314C631.293 296.264 631.514 296.262 631.729 296.308C631.943 296.354 632.146 296.447 632.326 296.58C632.505 296.714 632.657 296.887 632.771 297.086C632.885 297.286 632.959 297.508 632.989 297.74C633.019 297.972 633.004 298.208 632.945 298.433C632.885 298.658 632.783 298.868 632.644 299.048C632.506 299.229 632.333 299.378 632.138 299.484C631.944 299.59 631.73 299.652 631.512 299.666C631.334 299.699 631.155 299.723 630.975 299.736Z" fill="#A6A6A6"/>
<path d="M650.456 299.736C649.52 299.699 648.602 299.451 647.762 299.009C646.921 298.567 646.178 297.94 645.579 297.17C644.268 295.557 642.42 291.855 644.268 285.137C646.012 278.981 650.194 276.442 653.445 277.101C655.936 277.606 658.689 280.313 658.204 286.273C658.191 286.496 658.136 286.713 658.042 286.913C657.949 287.112 657.818 287.289 657.659 287.433C657.5 287.577 657.315 287.685 657.116 287.751C656.917 287.817 656.707 287.839 656.5 287.816C656.082 287.773 655.697 287.556 655.427 287.213C655.157 286.869 655.025 286.426 655.058 285.979C655.307 282.879 654.455 280.748 652.855 280.369C651.046 280.004 648.476 281.87 647.296 286.063C646.221 289.891 646.444 293.075 647.939 294.912C648.252 295.355 648.659 295.713 649.126 295.957C649.593 296.201 650.107 296.323 650.626 296.314C651.025 296.289 651.418 296.425 651.727 296.696C652.035 296.967 652.237 297.353 652.292 297.776C652.347 298.199 652.25 298.629 652.021 298.979C651.793 299.33 651.449 299.575 651.059 299.666C650.859 299.702 650.658 299.725 650.456 299.736Z" fill="#A6A6A6"/>
<path d="M669.977 299.736C669.043 299.699 668.127 299.451 667.288 299.009C666.45 298.567 665.709 297.94 665.113 297.17C663.802 295.557 661.953 291.855 663.802 285.137C665.532 278.981 669.728 276.442 672.979 277.101C675.47 277.606 678.223 280.313 677.738 286.273C677.723 286.495 677.667 286.712 677.573 286.91C677.479 287.108 677.348 287.285 677.189 287.428C677.031 287.572 676.847 287.68 676.648 287.747C676.45 287.813 676.241 287.837 676.034 287.816C675.615 287.777 675.227 287.561 674.957 287.216C674.687 286.872 674.555 286.427 674.591 285.979C674.841 282.879 673.988 280.748 672.376 280.369C670.763 279.99 668.01 281.87 666.83 286.063C665.742 289.891 665.978 293.075 667.473 294.912C667.779 295.346 668.176 295.698 668.63 295.941C669.085 296.184 669.586 296.312 670.095 296.314C670.308 296.264 670.529 296.262 670.744 296.308C670.958 296.354 671.162 296.447 671.341 296.58C671.52 296.714 671.672 296.887 671.786 297.086C671.9 297.286 671.975 297.508 672.005 297.74C672.035 297.972 672.019 298.208 671.96 298.433C671.901 298.658 671.798 298.868 671.66 299.048C671.521 299.229 671.349 299.378 671.154 299.484C670.959 299.59 670.746 299.652 670.527 299.666C670.345 299.7 670.161 299.723 669.977 299.736Z" fill="#A6A6A6"/>
<path d="M689.406 299.736C688.471 299.704 687.553 299.459 686.714 299.016C685.875 298.574 685.134 297.944 684.542 297.17C683.231 295.557 681.369 291.855 683.231 285.137C684.961 278.981 689.157 276.442 692.408 277.101C694.912 277.606 697.652 280.313 697.18 286.273C697.165 286.495 697.109 286.712 697.015 286.91C696.921 287.108 696.79 287.285 696.631 287.428C696.473 287.572 696.289 287.68 696.09 287.747C695.892 287.813 695.683 287.837 695.476 287.816C695.057 287.777 694.669 287.561 694.399 287.216C694.129 286.872 693.997 286.427 694.034 285.979C694.269 282.879 693.43 280.748 691.818 280.369C690.009 280.004 687.452 281.87 686.272 286.063C685.184 289.891 685.42 293.075 686.915 294.912C687.228 295.355 687.635 295.713 688.102 295.957C688.569 296.201 689.083 296.323 689.602 296.314C690.001 296.289 690.394 296.425 690.703 296.696C691.011 296.967 691.213 297.353 691.268 297.776C691.322 298.199 691.226 298.629 690.997 298.979C690.769 299.33 690.425 299.575 690.035 299.666C689.827 299.703 689.617 299.726 689.406 299.736Z" fill="#A6A6A6"/>
<path d="M708.887 299.736C707.965 299.7 707.06 299.46 706.23 299.03C705.399 298.6 704.661 297.991 704.063 297.24C702.752 295.627 700.903 291.925 702.752 285.207C704.482 279.051 708.677 276.512 711.929 277.172C714.42 277.676 717.173 280.383 716.701 286.343C716.686 286.565 716.63 286.782 716.536 286.98C716.441 287.179 716.311 287.355 716.152 287.499C715.993 287.642 715.809 287.751 715.611 287.817C715.412 287.884 715.203 287.907 714.996 287.886C714.788 287.868 714.586 287.807 714.4 287.704C714.214 287.602 714.05 287.461 713.916 287.29C713.781 287.119 713.68 286.922 713.618 286.708C713.556 286.495 713.534 286.271 713.554 286.049C713.79 282.949 712.951 280.818 711.339 280.439C709.726 280.06 706.973 281.94 705.793 286.133C704.705 289.961 704.941 293.145 706.436 294.982C706.742 295.417 707.138 295.769 707.592 296.013C708.047 296.256 708.549 296.383 709.058 296.384C709.271 296.334 709.492 296.332 709.707 296.378C709.921 296.424 710.124 296.517 710.304 296.651C710.483 296.785 710.635 296.957 710.749 297.156C710.863 297.356 710.938 297.578 710.967 297.81C710.997 298.042 710.982 298.278 710.923 298.503C710.863 298.728 710.761 298.938 710.622 299.119C710.484 299.299 710.311 299.448 710.117 299.554C709.922 299.66 709.708 299.722 709.49 299.736C709.289 299.748 709.088 299.748 708.887 299.736Z" fill="#A6A6A6"/>
<path d="M728.369 299.736C727.433 299.699 726.515 299.451 725.674 299.009C724.834 298.567 724.09 297.94 723.492 297.17C722.181 295.557 720.332 291.855 722.181 285.137C723.911 278.981 728.106 276.442 731.358 277.101C733.849 277.606 736.602 280.313 736.13 286.273C736.112 286.494 736.053 286.709 735.957 286.906C735.861 287.103 735.73 287.277 735.572 287.42C735.413 287.563 735.229 287.67 735.031 287.737C734.834 287.804 734.625 287.828 734.419 287.809C734.212 287.789 734.011 287.727 733.827 287.624C733.643 287.522 733.48 287.382 733.347 287.212C733.213 287.042 733.113 286.845 733.05 286.634C732.988 286.422 732.965 286.2 732.983 285.979C733.219 282.879 732.38 280.748 730.768 280.369C728.958 280.004 726.402 281.87 725.209 286.063C724.134 289.891 724.357 293.075 725.851 294.912C726.158 295.346 726.554 295.698 727.009 295.941C727.464 296.184 727.965 296.312 728.473 296.314C728.874 296.284 729.27 296.417 729.583 296.686C729.895 296.956 730.1 297.343 730.157 297.768C730.213 298.193 730.117 298.625 729.887 298.978C729.658 299.33 729.312 299.576 728.919 299.666C728.737 299.699 728.553 299.723 728.369 299.736Z" fill="#A6A6A6"/>
<path d="M747.85 299.736C746.914 299.699 745.996 299.451 745.156 299.009C744.315 298.567 743.572 297.94 742.973 297.17C741.662 295.557 739.814 291.855 741.662 285.137C743.393 278.981 747.588 276.442 750.839 277.101C753.33 277.606 756.083 280.313 755.611 286.273C755.595 286.496 755.537 286.712 755.441 286.911C755.346 287.109 755.214 287.286 755.054 287.429C754.895 287.573 754.71 287.681 754.51 287.747C754.311 287.814 754.101 287.837 753.894 287.816C753.476 287.773 753.091 287.556 752.821 287.213C752.551 286.869 752.419 286.426 752.452 285.979C752.701 282.879 751.848 280.748 750.249 280.369C748.44 280.004 745.883 281.87 744.69 286.063C743.615 289.891 743.838 293.075 745.333 294.912C745.646 295.355 746.053 295.713 746.52 295.957C746.987 296.201 747.501 296.323 748.02 296.314C748.419 296.289 748.812 296.425 749.121 296.696C749.429 296.967 749.631 297.353 749.686 297.776C749.741 298.199 749.644 298.629 749.415 298.979C749.187 299.33 748.843 299.575 748.453 299.666C748.253 299.702 748.052 299.725 747.85 299.736Z" fill="#A6A6A6"/>
<path opacity="0.2" d="M499.452 230.94H454.044C451.234 230.94 448.956 233.218 448.956 236.028V259.668C448.956 262.478 451.234 264.756 454.044 264.756H499.452C502.262 264.756 504.54 262.478 504.54 259.668V236.028C504.54 233.218 502.262 230.94 499.452 230.94Z" fill="white"/>
<path d="M449.904 234.66L474.072 247.068C474.831 247.45 475.67 247.649 476.52 247.649C477.37 247.649 478.208 247.45 478.968 247.068L503.76 234.564" fill="white"/>
<path d="M151.488 228.564C151.307 228.329 151.074 228.139 150.808 228.008C150.541 227.877 150.249 227.808 149.952 227.808H100.344L98.4 222.06C98.2649 221.691 98.0199 221.372 97.698 221.147C97.3762 220.922 96.9929 220.801 96.6 220.8H84C83.5154 220.838 83.0631 221.058 82.7332 221.415C82.4034 221.772 82.2201 222.24 82.2201 222.726C82.2201 223.212 82.4034 223.68 82.7332 224.037C83.0631 224.394 83.5154 224.614 84 224.652H95.172L107.28 261C107.406 261.384 107.651 261.718 107.978 261.955C108.306 262.192 108.7 262.32 109.104 262.32H109.812C109.165 263.322 108.799 264.48 108.755 265.672C108.71 266.864 108.987 268.047 109.558 269.094C110.128 270.142 110.971 271.017 111.996 271.626C113.022 272.235 114.193 272.557 115.386 272.557C116.579 272.557 117.75 272.235 118.776 271.626C119.801 271.017 120.644 270.142 121.214 269.094C121.785 268.047 122.062 266.864 122.017 265.672C121.973 264.48 121.607 263.322 120.96 262.32H130.212C129.565 263.322 129.199 264.48 129.155 265.672C129.11 266.864 129.387 268.047 129.958 269.094C130.528 270.142 131.371 271.017 132.396 271.626C133.422 272.235 134.593 272.557 135.786 272.557C136.979 272.557 138.15 272.235 139.176 271.626C140.201 271.017 141.044 270.142 141.614 269.094C142.185 268.047 142.462 266.864 142.417 265.672C142.373 264.48 142.007 263.322 141.36 262.32H142.848C143.333 262.282 143.785 262.062 144.115 261.705C144.445 261.348 144.628 260.88 144.628 260.394C144.628 259.908 144.445 259.44 144.115 259.083C143.785 258.726 143.333 258.506 142.848 258.468H110.448L108.336 252.12H144.336C144.76 252.119 145.171 251.978 145.507 251.72C145.844 251.462 146.085 251.101 146.196 250.692L151.68 230.292C151.786 230.009 151.824 229.705 151.791 229.405C151.757 229.105 151.654 228.817 151.488 228.564ZM115.488 268.608C114.937 268.608 114.399 268.445 113.941 268.139C113.483 267.833 113.127 267.398 112.916 266.889C112.705 266.381 112.65 265.821 112.757 265.281C112.865 264.741 113.13 264.245 113.519 263.855C113.909 263.466 114.405 263.201 114.945 263.094C115.485 262.986 116.045 263.041 116.553 263.252C117.062 263.463 117.497 263.819 117.803 264.277C118.109 264.735 118.272 265.273 118.272 265.824C118.272 266.195 118.198 266.562 118.054 266.903C117.911 267.245 117.7 267.555 117.435 267.814C117.171 268.073 116.857 268.277 116.512 268.414C116.167 268.55 115.799 268.616 115.428 268.608H115.488ZM135.888 268.608C135.337 268.608 134.799 268.445 134.341 268.139C133.883 267.833 133.527 267.398 133.316 266.889C133.105 266.381 133.05 265.821 133.157 265.281C133.265 264.741 133.53 264.245 133.919 263.855C134.309 263.466 134.805 263.201 135.345 263.094C135.885 262.986 136.445 263.041 136.953 263.252C137.462 263.463 137.897 263.819 138.203 264.277C138.509 264.735 138.672 265.273 138.672 265.824C138.672 266.195 138.598 266.562 138.454 266.903C138.311 267.245 138.1 267.555 137.835 267.814C137.571 268.073 137.257 268.277 136.912 268.414C136.567 268.55 136.199 268.616 135.828 268.608H135.888ZM141.024 248.208H133.896V231.66H141.024V248.208ZM122.916 231.66H130.044V248.208H122.916V231.66ZM119.064 248.208H111.864V231.66H119.064V248.208ZM101.628 231.66H108V248.208H107.136L101.628 231.66ZM144.828 241.404V231.66H147.456L144.828 241.404Z" fill="#EBA417"/>
<path d="M456 136.8L460.452 134.772L459.504 129.432L454.596 129.048C453.974 127.399 453.147 125.835 452.136 124.392L454.668 120.12L450.84 116.28L446.532 118.848C444.054 117.163 441.249 116.019 438.3 115.488L437.1 110.568H431.676L430.476 115.512C428.791 115.833 427.151 116.357 425.592 117.072L421.716 113.712L417.276 116.82L419.1 121.62C417.911 122.844 416.869 124.201 415.992 125.664L410.88 125.136L409.02 130.236L413.256 133.104C413.049 134.293 412.945 135.497 412.944 136.704C412.944 137.22 412.944 137.724 413.004 138.228L408.564 140.712L409.968 145.956H414.996C415.741 147.526 416.672 149 417.768 150.348L415.548 154.8L419.7 158.28L423.732 155.4C425.245 156.272 426.856 156.961 428.532 157.452L429.336 162.252L434.748 162.732L436.368 158.124C438.144 157.97 439.893 157.595 441.576 157.008L444.984 160.464L449.688 157.752L448.392 153.084C449.75 151.926 450.959 150.604 451.992 149.148L456.792 150.024L459.12 145.2L455.376 142.104C455.8 140.368 456.009 138.587 456 136.8ZM447.972 136.704C447.972 139.384 447.177 142.003 445.689 144.231C444.2 146.459 442.084 148.195 439.609 149.221C437.133 150.246 434.409 150.514 431.781 149.992C429.153 149.469 426.739 148.179 424.844 146.284C422.949 144.389 421.659 141.975 421.136 139.347C420.614 136.719 420.882 133.995 421.907 131.519C422.933 129.044 424.669 126.928 426.897 125.439C429.125 123.951 431.744 123.156 434.424 123.156C436.216 123.148 437.991 123.496 439.648 124.179C441.304 124.863 442.808 125.868 444.073 127.137C445.337 128.407 446.338 129.914 447.015 131.573C447.693 133.232 448.034 135.008 448.02 136.8L447.972 136.704Z" fill="#FFC727"/>
<path d="M439.092 374.664C438.824 375.163 438.76 375.746 438.912 376.292C439.064 376.838 439.421 377.303 439.908 377.592C440.498 377.949 441.204 378.062 441.876 377.908C442.548 377.753 443.133 377.343 443.508 376.764L449.832 367.008L449.952 366.792L458.088 365.928L457.26 367.548C457.133 367.785 457.096 368.06 457.155 368.323C457.215 368.585 457.367 368.817 457.584 368.976C457.707 369.062 457.846 369.121 457.994 369.15C458.141 369.178 458.292 369.175 458.438 369.141C458.584 369.107 458.722 369.043 458.841 368.952C458.961 368.862 459.06 368.747 459.132 368.616L460.776 365.652L466.896 365.004L465.696 367.26C465.571 367.502 465.542 367.783 465.616 368.046C465.689 368.308 465.859 368.534 466.092 368.676C466.121 368.804 466.189 368.921 466.285 369.009C466.382 369.098 466.504 369.156 466.634 369.174C466.764 369.192 466.897 369.171 467.014 369.112C467.132 369.053 467.229 368.959 467.292 368.844L469.584 364.716L473.64 364.284C474.386 364.209 475.106 363.968 475.747 363.58C476.388 363.192 476.935 362.666 477.348 362.04L478.02 361.032L465.6 359.736C465.6 359.736 457.548 359.004 456.288 355.044L462.492 343.452L462.552 343.296L471.156 342.36L473.04 339.864L464.796 337.836L465.36 336.48C465.372 336.452 465.374 336.42 465.365 336.39C465.356 336.361 465.338 336.335 465.312 336.318C465.286 336.301 465.255 336.293 465.225 336.297C465.194 336.3 465.166 336.314 465.144 336.336L463.944 337.536L458.232 330.948L456.6 333.984L460.044 341.436L459.828 341.652L453.12 351.6C451.86 352.656 449.52 354 447.576 351.792C444.624 348.588 436.86 336.096 436.86 336.096L436.092 338.004C435.6 339.253 435.6 340.643 436.092 341.892L437.46 345.492L435.6 348.96C435.473 349.197 435.436 349.472 435.495 349.735C435.555 349.997 435.707 350.229 435.924 350.388C436.049 350.472 436.19 350.529 436.338 350.556C436.487 350.582 436.639 350.578 436.785 350.543C436.932 350.508 437.07 350.443 437.19 350.353C437.31 350.262 437.41 350.147 437.484 350.016L438.444 348.288L440.46 353.556L438.684 357.012C438.555 357.252 438.517 357.53 438.579 357.796C438.641 358.061 438.798 358.294 439.02 358.452C439.144 358.536 439.284 358.593 439.432 358.619C439.579 358.646 439.73 358.641 439.876 358.606C440.021 358.571 440.158 358.507 440.277 358.416C440.396 358.325 440.495 358.211 440.568 358.08L441.6 356.4L444.672 364.404L439.092 374.664Z" fill="#00D8FF"/>
<path d="M214.884 106.476H157.98V140.7H214.884V106.476Z" fill="#D53131"/>
<path d="M185.568 133.14C191.155 133.14 195.684 128.611 195.684 123.024C195.684 117.437 191.155 112.908 185.568 112.908C179.981 112.908 175.452 117.437 175.452 123.024C175.452 128.611 179.981 133.14 185.568 133.14Z" fill="white"/>
<path d="M192.912 123.024L181.788 116.604V129.444L192.912 123.024Z" fill="#D53131"/>
<path d="M145.944 335.568V362.4C144.835 361.814 143.598 361.513 142.344 361.524C138.864 361.524 136.056 363.696 136.056 366.324C136.056 368.952 138.864 371.184 142.344 371.184C148.2 371.184 148.632 367.176 148.632 367.176V343.608L165.336 341.208V359.208C164.224 358.631 162.988 358.335 161.736 358.344C158.256 358.344 155.448 360.516 155.448 363.204C155.448 365.892 158.256 368.004 161.736 368.004C164.82 368.004 167.388 366.264 167.904 363.996L168 340.8V332.4L145.944 335.568Z" fill="#9738F5"/>
<path d="M327.66 91.2V88.092C327.66 87.5796 327.456 87.0882 327.094 86.7259C326.732 86.3636 326.24 86.16 325.728 86.16H322.452C321.94 86.16 321.448 86.3636 321.086 86.7259C320.724 87.0882 320.52 87.5796 320.52 88.092V99.336H288.12V88.092C288.12 87.5796 287.916 87.0882 287.554 86.7259C287.192 86.3636 286.7 86.16 286.188 86.16H282.696C282.19 86.1694 281.708 86.3771 281.353 86.7384C280.999 87.0997 280.8 87.5858 280.8 88.092V91.2H275.652C275.07 91.2 274.511 91.4314 274.099 91.8432C273.687 92.255 273.456 92.8136 273.456 93.396V108C273.456 108.584 273.687 109.143 274.098 109.557C274.51 109.971 275.068 110.205 275.652 110.208H280.8V113.28C280.803 113.782 281.001 114.263 281.353 114.622C281.705 114.98 282.182 115.188 282.684 115.2H286.176C286.688 115.2 287.18 114.996 287.542 114.634C287.904 114.272 288.108 113.78 288.108 113.268V104.4H320.508V113.208C320.5 113.468 320.544 113.726 320.639 113.969C320.733 114.211 320.875 114.431 321.056 114.617C321.238 114.803 321.455 114.951 321.695 115.051C321.935 115.151 322.192 115.202 322.452 115.2H325.728C326.24 115.2 326.732 114.996 327.094 114.634C327.456 114.272 327.66 113.78 327.66 113.268V110.16H332.604C333.179 110.157 333.731 109.93 334.141 109.526C334.551 109.123 334.788 108.575 334.8 108V93.372C334.794 92.7938 334.56 92.2413 334.148 91.8347C333.737 91.428 333.182 91.2 332.604 91.2H327.66Z" fill="#31E458"/>
<path opacity="0.2" d="M304.308 394.188C377.952 394.188 437.652 334.488 437.652 260.844C437.652 187.2 377.952 127.5 304.308 127.5C230.664 127.5 170.964 187.2 170.964 260.844C170.964 334.488 230.664 394.188 304.308 394.188Z" fill="#263238"/>
<path d="M304.308 383.724C372.173 383.724 427.188 328.709 427.188 260.844C427.188 192.979 372.173 137.964 304.308 137.964C236.443 137.964 181.428 192.979 181.428 260.844C181.428 328.709 236.443 383.724 304.308 383.724Z" fill="#00D8FF" stroke="#263238" stroke-miterlimit="10"/>
<g opacity="0.2">
<path d="M304.308 264.864C303.772 264.867 303.241 264.763 302.746 264.557C302.251 264.351 301.803 264.047 301.428 263.664L224.136 184.284C223.43 183.513 223.052 182.498 223.082 181.453C223.113 180.409 223.548 179.417 224.298 178.688C225.047 177.959 226.05 177.551 227.095 177.549C228.14 177.548 229.145 177.953 229.896 178.68L307.2 258C307.753 258.566 308.126 259.283 308.273 260.06C308.42 260.838 308.335 261.641 308.027 262.37C307.72 263.099 307.204 263.721 306.545 264.159C305.885 264.596 305.111 264.829 304.32 264.828L304.308 264.864Z" fill="#263238"/>
</g>
<path opacity="0.2" d="M269.64 288.06C268.775 288.064 267.932 287.789 267.236 287.276C266.54 286.763 266.027 286.039 265.775 285.211C265.523 284.384 265.545 283.497 265.837 282.683C266.129 281.869 266.676 281.171 267.396 280.692L302.076 257.496C302.962 256.935 304.033 256.742 305.06 256.96C306.086 257.177 306.987 257.787 307.569 258.66C308.152 259.532 308.371 260.598 308.178 261.629C307.986 262.661 307.398 263.576 306.54 264.18L271.872 287.376C271.212 287.819 270.435 288.057 269.64 288.06Z" fill="#263238"/>
<path d="M309.288 260.844C309.29 259.859 309 258.895 308.455 258.074C307.909 257.253 307.132 256.613 306.222 256.235C305.312 255.856 304.311 255.755 303.344 255.946C302.377 256.137 301.489 256.61 300.791 257.306C300.093 258.002 299.618 258.89 299.425 259.856C299.231 260.822 299.329 261.824 299.706 262.735C300.083 263.646 300.721 264.424 301.54 264.972C302.359 265.52 303.323 265.812 304.308 265.812C305.627 265.812 306.892 265.289 307.825 264.358C308.759 263.426 309.285 262.163 309.288 260.844Z" fill="#263238" stroke="#263238" stroke-miterlimit="10" stroke-linecap="round"/>
<path d="M304.404 148.956V165.564" stroke="#263238" stroke-width="2" stroke-miterlimit="10" stroke-linecap="round"/>
<path d="M304.404 354.828V371.436" stroke="#263238" stroke-width="2" stroke-miterlimit="10" stroke-linecap="round"/>
<path d="M415.644 260.196H399.024" stroke="#263238" stroke-width="2" stroke-miterlimit="10" stroke-linecap="round"/>
<path d="M209.772 260.196H193.164" stroke="#263238" stroke-width="2" stroke-miterlimit="10" stroke-linecap="round"/>
<path d="M362.736 165.48L354.024 179.628" stroke="#263238" stroke-width="2" stroke-miterlimit="10" stroke-linecap="round"/>
<path d="M254.772 340.764L246.06 354.912" stroke="#263238" stroke-width="2" stroke-miterlimit="10" stroke-linecap="round"/>
<path d="M402.264 207.312L387.648 215.208" stroke="#263238" stroke-width="2" stroke-miterlimit="10" stroke-linecap="round"/>
<path d="M221.148 305.184L206.532 313.08" stroke="#263238" stroke-width="2" stroke-miterlimit="10" stroke-linecap="round"/>
<path d="M399.12 318.54L384.972 309.816" stroke="#263238" stroke-width="2" stroke-miterlimit="10" stroke-linecap="round"/>
<path d="M223.836 210.576L209.688 201.864" stroke="#263238" stroke-width="2" stroke-miterlimit="10" stroke-linecap="round"/>
<path d="M357.288 358.068L349.392 343.44" stroke="#263238" stroke-width="2" stroke-miterlimit="10" stroke-linecap="round"/>
<path d="M259.416 176.952L251.52 162.336" stroke="#263238" stroke-width="2" stroke-miterlimit="10" stroke-linecap="round"/>
<path d="M301.788 543.516C354.615 543.516 397.44 538.455 397.44 532.212C397.44 525.969 354.615 520.908 301.788 520.908C248.961 520.908 206.136 525.969 206.136 532.212C206.136 538.455 248.961 543.516 301.788 543.516Z" fill="#263238"/>
<path d="M327.456 364.02C327.324 361.356 327.456 357.252 327.564 354.888C327.883 352.977 328.044 351.042 328.044 349.104C328.044 323.376 318.12 321.216 305.856 321.216C293.592 321.216 283.668 325.344 283.668 349.104C283.668 349.728 283.668 350.304 283.728 350.964C283.836 351.996 284.844 361.86 283.92 365.58C282.936 369.504 275.076 370.296 270.564 379.716C266.052 389.136 275.868 402.888 307.872 404.652C339.876 406.416 343.2 385.032 343.2 377.772C343.2 370.512 327.66 367.944 327.456 364.02Z" fill="#263238"/>
<path d="M282.888 351.06L283.68 350.976V350.868L282.888 351.06Z" fill="#263238"/>
<path d="M287.4 386.4C287.4 386.4 274.452 387.108 269.856 389.688C265.26 392.268 264.396 407.496 264.396 407.496L250.62 437.064C250.62 437.064 213.576 411.228 210.42 408.648C207.264 406.068 206.4 404.052 203.22 402.036C200.04 400.02 198.912 400.032 194.892 400.032C190.872 400.032 190.296 400.608 190.584 401.748C190.872 402.888 192.312 403.188 193.452 403.188C194.712 403.289 195.964 403.481 197.196 403.764L185.7 408.36C182.832 409.5 183.408 404.904 180.828 404.904C178.248 404.904 178.524 411.516 182.832 414.672C187.14 417.828 190.032 416.964 193.452 416.676C196.872 416.388 204.948 415.248 204.948 415.248C204.948 415.248 227.052 434.772 235.092 441.948C243.132 449.124 254.04 456.012 258.06 453.144C262.08 450.276 277.26 422.136 277.26 422.136L287.016 396.3C287.016 396.3 289.74 390.876 287.4 386.4Z" fill="white"/>
<mask id="mask0_4_492" style="mask-type:luminance" maskUnits="userSpaceOnUse" x="179" y="386" width="110" height="68">
<path d="M287.4 386.4C287.4 386.4 274.452 387.108 269.856 389.688C265.26 392.268 264.396 407.496 264.396 407.496L250.62 437.064C250.62 437.064 213.576 411.228 210.42 408.648C207.264 406.068 206.4 404.052 203.22 402.036C200.04 400.02 198.912 400.032 194.892 400.032C190.872 400.032 190.296 400.608 190.584 401.748C190.872 402.888 192.312 403.188 193.452 403.188C194.712 403.289 195.964 403.481 197.196 403.764L185.7 408.36C182.832 409.5 183.408 404.904 180.828 404.904C178.248 404.904 178.524 411.516 182.832 414.672C187.14 417.828 190.032 416.964 193.452 416.676C196.872 416.388 204.948 415.248 204.948 415.248C204.948 415.248 227.052 434.772 235.092 441.948C243.132 449.124 254.04 456.012 258.06 453.144C262.08 450.276 277.26 422.136 277.26 422.136L287.016 396.3C287.016 396.3 289.74 390.876 287.4 386.4Z" fill="white"/>
</mask>
<g mask="url(#mask0_4_492)">
<path opacity="0.1" d="M287.4 386.4C287.4 386.4 274.452 387.108 269.856 389.688C265.26 392.268 264.396 407.496 264.396 407.496L250.62 437.064C250.62 437.064 213.576 411.228 210.42 408.648C207.264 406.068 206.4 404.052 203.22 402.036C200.04 400.02 198.912 400.032 194.892 400.032C190.872 400.032 190.296 400.608 190.584 401.748C190.872 402.888 192.312 403.188 193.452 403.188C194.712 403.289 195.964 403.481 197.196 403.764L185.7 408.36C182.832 409.5 183.408 404.904 180.828 404.904C178.248 404.904 178.524 411.516 182.832 414.672C187.14 417.828 190.032 416.964 193.452 416.676C196.872 416.388 204.948 415.248 204.948 415.248C204.948 415.248 227.052 434.772 235.092 441.948C243.132 449.124 254.04 456.012 258.06 453.144C262.08 450.276 277.26 422.136 277.26 422.136L287.016 396.3C287.016 396.3 289.74 390.876 287.4 386.4Z" fill="black"/>
</g>
<path d="M287.4 386.4C287.4 386.4 274.452 387.108 269.856 389.688C265.26 392.268 264.396 407.496 264.396 407.496L250.62 437.064C250.62 437.064 213.576 411.228 210.42 408.648C207.264 406.068 206.4 404.052 203.22 402.036C200.04 400.02 198.912 400.032 194.892 400.032C190.872 400.032 190.296 400.608 190.584 401.748C190.872 402.888 192.312 403.188 193.452 403.188C194.712 403.289 195.964 403.481 197.196 403.764L185.7 408.36C182.832 409.5 183.408 404.904 180.828 404.904C178.248 404.904 178.524 411.516 182.832 414.672C187.14 417.828 190.032 416.964 193.452 416.676C196.872 416.388 204.948 415.248 204.948 415.248C204.948 415.248 227.052 434.772 235.092 441.948C243.132 449.124 254.04 456.012 258.06 453.144C262.08 450.276 277.26 422.136 277.26 422.136L287.016 396.3C287.016 396.3 289.74 390.876 287.4 386.4Z" stroke="#263238" stroke-miterlimit="10" stroke-linecap="round"/>
<path d="M183.66 415.308C183.66 415.308 178.068 410.772 181.08 406.332C181.824 405.228 183.48 406.896 183.96 409.932C184.44 412.968 185.952 414.144 186.732 414.36" fill="white"/>
<mask id="mask1_4_492" style="mask-type:luminance" maskUnits="userSpaceOnUse" x="180" y="405" width="7" height="11">
<path d="M183.66 415.308C183.66 415.308 178.068 410.772 181.08 406.332C181.824 405.228 183.48 406.896 183.96 409.932C184.44 412.968 185.952 414.144 186.732 414.36" fill="white"/>
</mask>
<g mask="url(#mask1_4_492)">
<path opacity="0.1" d="M183.66 415.308C183.66 415.308 178.068 410.772 181.08 406.332C181.824 405.228 183.48 406.896 183.96 409.932C184.44 412.968 185.952 414.144 186.732 414.36" fill="black"/>
</g>
<path d="M183.66 415.308C183.66 415.308 178.068 410.772 181.08 406.332C181.824 405.228 183.48 406.896 183.96 409.932C184.44 412.968 185.952 414.144 186.732 414.36" stroke="#263238" stroke-miterlimit="10" stroke-linecap="round"/>
<path d="M187.836 414.312C186.504 414.312 186.576 410.712 184.068 408.996C182.076 407.592 182.328 410.352 182.796 412.596C182.979 413.516 183.436 414.36 184.106 415.018C184.776 415.675 185.628 416.115 186.552 416.28C187.411 416.495 188.306 416.532 189.18 416.388" fill="white"/>
<mask id="mask2_4_492" style="mask-type:luminance" maskUnits="userSpaceOnUse" x="182" y="408" width="8" height="9">
<path d="M187.836 414.312C186.504 414.312 186.576 410.712 184.068 408.996C182.076 407.592 182.328 410.352 182.796 412.596C182.979 413.516 183.436 414.36 184.106 415.018C184.776 415.675 185.628 416.115 186.552 416.28C187.411 416.495 188.306 416.532 189.18 416.388" fill="white"/>
</mask>
<g mask="url(#mask2_4_492)">
<path opacity="0.1" d="M187.836 414.312C186.504 414.312 186.576 410.712 184.068 408.996C182.076 407.592 182.328 410.352 182.796 412.596C182.979 413.516 183.436 414.36 184.106 415.018C184.776 415.675 185.628 416.115 186.552 416.28C187.411 416.495 188.306 416.532 189.18 416.388" fill="black"/>
</g>
<path d="M187.836 414.312C186.504 414.312 186.576 410.712 184.068 408.996C182.076 407.592 182.328 410.352 182.796 412.596C182.979 413.516 183.436 414.36 184.106 415.018C184.776 415.675 185.628 416.115 186.552 416.28C187.411 416.495 188.306 416.532 189.18 416.388" stroke="#263238" stroke-miterlimit="10" stroke-linecap="round"/>
<path d="M204.684 408.444C204.684 408.444 202.8 407.112 199.14 408.336C195.48 409.56 191.16 414.876 190.164 414.432C189.232 413.898 188.525 413.046 188.172 412.032C187.608 410.928 186.516 409.332 185.772 410.616C184.116 413.424 188.628 416.616 188.628 416.616C188.628 416.616 189.252 417.144 192.744 416.724C196.236 416.304 204.12 415.2 204.12 415.2" fill="white"/>
<mask id="mask3_4_492" style="mask-type:luminance" maskUnits="userSpaceOnUse" x="185" y="407" width="20" height="10">
<path d="M204.684 408.444C204.684 408.444 202.8 407.112 199.14 408.336C195.48 409.56 191.16 414.876 190.164 414.432C189.232 413.898 188.525 413.046 188.172 412.032C187.608 410.928 186.516 409.332 185.772 410.616C184.116 413.424 188.628 416.616 188.628 416.616C188.628 416.616 189.252 417.144 192.744 416.724C196.236 416.304 204.12 415.2 204.12 415.2" fill="white"/>
</mask>
<g mask="url(#mask3_4_492)">
<path opacity="0.1" d="M204.684 408.444C204.684 408.444 202.8 407.112 199.14 408.336C195.48 409.56 191.16 414.876 190.164 414.432C189.232 413.898 188.525 413.046 188.172 412.032C187.608 410.928 186.516 409.332 185.772 410.616C184.116 413.424 188.628 416.616 188.628 416.616C188.628 416.616 189.252 417.144 192.744 416.724C196.236 416.304 204.12 415.2 204.12 415.2" fill="black"/>
</g>
<path d="M204.684 408.444C204.684 408.444 202.8 407.112 199.14 408.336C195.48 409.56 191.16 414.876 190.164 414.432C189.232 413.898 188.525 413.046 188.172 412.032C187.608 410.928 186.516 409.332 185.772 410.616C184.116 413.424 188.628 416.616 188.628 416.616C188.628 416.616 189.252 417.144 192.744 416.724C196.236 416.304 204.12 415.2 204.12 415.2" stroke="#263238" stroke-miterlimit="10" stroke-linecap="round"/>
<path d="M277.476 415.98L273.288 403.992" stroke="#263238" stroke-miterlimit="10" stroke-linecap="round"/>
<path d="M321.012 386.136C321.012 386.136 334.656 387.108 339.252 389.736C343.848 392.364 344.712 407.544 344.712 407.544L358.488 437.112C358.488 437.112 395.532 411.276 398.688 408.696C401.844 406.116 402.708 404.1 405.888 402.084C409.068 400.068 410.196 400.08 414.216 400.08C418.236 400.08 418.812 400.656 418.524 401.796C418.236 402.936 416.796 403.236 415.644 403.236C414.388 403.337 413.14 403.53 411.912 403.812L423.396 408.408C426.276 409.548 425.7 404.952 428.28 404.952C430.86 404.952 430.584 411.564 426.276 414.72C421.968 417.876 419.076 417.012 415.644 416.724C412.212 416.436 404.16 415.296 404.16 415.296C404.16 415.296 382.056 434.82 374.016 441.996C365.976 449.172 355.068 456.06 351.048 453.192C347.028 450.324 331.848 422.184 331.848 422.184L322.092 396.348C322.092 396.348 318.684 390.612 321.012 386.136Z" fill="white"/>
<mask id="mask4_4_492" style="mask-type:luminance" maskUnits="userSpaceOnUse" x="320" y="386" width="110" height="68">
<path d="M321.012 386.136C321.012 386.136 334.656 387.108 339.252 389.736C343.848 392.364 344.712 407.544 344.712 407.544L358.488 437.112C358.488 437.112 395.532 411.276 398.688 408.696C401.844 406.116 402.708 404.1 405.888 402.084C409.068 400.068 410.196 400.08 414.216 400.08C418.236 400.08 418.812 400.656 418.524 401.796C418.236 402.936 416.796 403.236 415.644 403.236C414.388 403.337 413.14 403.53 411.912 403.812L423.396 408.408C426.276 409.548 425.7 404.952 428.28 404.952C430.86 404.952 430.584 411.564 426.276 414.72C421.968 417.876 419.076 417.012 415.644 416.724C412.212 416.436 404.16 415.296 404.16 415.296C404.16 415.296 382.056 434.82 374.016 441.996C365.976 449.172 355.068 456.06 351.048 453.192C347.028 450.324 331.848 422.184 331.848 422.184L322.092 396.348C322.092 396.348 318.684 390.612 321.012 386.136Z" fill="white"/>
</mask>
<g mask="url(#mask4_4_492)">
<path opacity="0.1" d="M321.012 386.136C321.012 386.136 334.656 387.108 339.252 389.736C343.848 392.364 344.712 407.544 344.712 407.544L358.488 437.112C358.488 437.112 395.532 411.276 398.688 408.696C401.844 406.116 402.708 404.1 405.888 402.084C409.068 400.068 410.196 400.08 414.216 400.08C418.236 400.08 418.812 400.656 418.524 401.796C418.236 402.936 416.796 403.236 415.644 403.236C414.388 403.337 413.14 403.53 411.912 403.812L423.396 408.408C426.276 409.548 425.7 404.952 428.28 404.952C430.86 404.952 430.584 411.564 426.276 414.72C421.968 417.876 419.076 417.012 415.644 416.724C412.212 416.436 404.16 415.296 404.16 415.296C404.16 415.296 382.056 434.82 374.016 441.996C365.976 449.172 355.068 456.06 351.048 453.192C347.028 450.324 331.848 422.184 331.848 422.184L322.092 396.348C322.092 396.348 318.684 390.612 321.012 386.136Z" fill="black"/>
</g>
<path d="M321.012 386.136C321.012 386.136 334.656 387.108 339.252 389.736C343.848 392.364 344.712 407.544 344.712 407.544L358.488 437.112C358.488 437.112 395.532 411.276 398.688 408.696C401.844 406.116 402.708 404.1 405.888 402.084C409.068 400.068 410.196 400.08 414.216 400.08C418.236 400.08 418.812 400.656 418.524 401.796C418.236 402.936 416.796 403.236 415.644 403.236C414.388 403.337 413.14 403.53 411.912 403.812L423.396 408.408C426.276 409.548 425.7 404.952 428.28 404.952C430.86 404.952 430.584 411.564 426.276 414.72C421.968 417.876 419.076 417.012 415.644 416.724C412.212 416.436 404.16 415.296 404.16 415.296C404.16 415.296 382.056 434.82 374.016 441.996C365.976 449.172 355.068 456.06 351.048 453.192C347.028 450.324 331.848 422.184 331.848 422.184L322.092 396.348C322.092 396.348 318.684 390.612 321.012 386.136Z" stroke="#263238" stroke-miterlimit="10" stroke-linecap="round"/>
<path d="M331.848 413.472L335.184 403.716" stroke="#263238" stroke-miterlimit="10" stroke-linecap="round"/>
<path d="M426.828 413.676C426.828 413.676 429.228 406.896 428.028 406.332C426.828 405.768 425.628 406.896 425.148 409.932C424.668 412.968 423.156 414.144 422.376 414.36" fill="white"/>
<mask id="mask5_4_492" style="mask-type:luminance" maskUnits="userSpaceOnUse" x="422" y="406" width="7" height="9">
<path d="M426.828 413.676C426.828 413.676 429.228 406.896 428.028 406.332C426.828 405.768 425.628 406.896 425.148 409.932C424.668 412.968 423.156 414.144 422.376 414.36" fill="white"/>
</mask>
<g mask="url(#mask5_4_492)">
<path opacity="0.1" d="M428.472 412.212C428.472 412.212 429.252 406.896 428.028 406.332C426.804 405.768 425.628 406.896 425.148 409.932C424.668 412.968 423.156 414.144 422.376 414.36" fill="black"/>
</g>
<path d="M426.828 413.676C426.828 413.676 429.228 406.896 428.028 406.332C426.828 405.768 425.628 406.896 425.148 409.932C424.668 412.968 423.156 414.144 422.376 414.36" stroke="#263238" stroke-miterlimit="10" stroke-linecap="round"/>
<path d="M425.004 414.888C425.004 414.888 428.028 406.332 424.524 408.6C421.944 410.268 422.604 414.312 421.272 414.312" fill="white"/>
<mask id="mask6_4_492" style="mask-type:luminance" maskUnits="userSpaceOnUse" x="421" y="408" width="6" height="7">
<path d="M425.004 414.888C425.004 414.888 428.028 406.332 424.524 408.6C421.944 410.268 422.604 414.312 421.272 414.312" fill="white"/>
</mask>
<g mask="url(#mask6_4_492)">
<path opacity="0.1" d="M425.7 414.984C425.7 414.984 428.028 406.332 424.5 408.6C421.92 410.268 422.58 414.312 421.248 414.312" fill="black"/>
</g>
<path d="M425.004 414.888C425.004 414.888 428.028 406.332 424.524 408.6C421.944 410.268 422.604 414.312 421.272 414.312" stroke="#263238" stroke-miterlimit="10" stroke-linecap="round"/>
<path d="M404.4 408.444C404.4 408.444 406.284 407.112 409.944 408.336C413.604 409.56 417.924 414.876 418.92 414.432C419.852 413.898 420.559 413.046 420.912 412.032C421.464 410.928 422.472 410.268 423.132 411.588C423.792 412.908 421.8 416.808 421.8 416.808C421.8 416.808 420.6 417.66 417.66 416.976C414.341 416.177 410.968 415.62 407.568 415.308" fill="white"/>
<mask id="mask7_4_492" style="mask-type:luminance" maskUnits="userSpaceOnUse" x="404" y="407" width="20" height="11">
<path d="M404.4 408.444C404.4 408.444 406.284 407.112 409.944 408.336C413.604 409.56 417.924 414.876 418.92 414.432C419.852 413.898 420.559 413.046 420.912 412.032C421.464 410.928 422.472 410.268 423.132 411.588C423.792 412.908 421.8 416.808 421.8 416.808C421.8 416.808 420.6 417.66 417.66 416.976C414.341 416.177 410.968 415.62 407.568 415.308" fill="white"/>
</mask>
<g mask="url(#mask7_4_492)">
<path opacity="0.1" d="M404.4 408.444C404.4 408.444 406.284 407.112 409.944 408.336C413.604 409.56 417.924 414.876 418.92 414.432C419.852 413.898 420.559 413.046 420.912 412.032C421.464 410.928 422.472 410.268 423.132 411.588C423.792 412.908 421.8 416.808 421.8 416.808C421.8 416.808 420.6 417.66 417.66 416.976C414.72 416.292 406.776 414.18 404.964 414.18" fill="black"/>
</g>
<path d="M404.4 408.444C404.4 408.444 406.284 407.112 409.944 408.336C413.604 409.56 417.924 414.876 418.92 414.432C419.852 413.898 420.559 413.046 420.912 412.032C421.464 410.928 422.472 410.268 423.132 411.588C423.792 412.908 421.8 416.808 421.8 416.808C421.8 416.808 420.6 417.66 417.66 416.976C414.341 416.177 410.968 415.62 407.568 415.308" stroke="#263238" stroke-miterlimit="10" stroke-linecap="round"/>
<path d="M299.184 368.928C299.184 368.928 298.596 375.612 295.848 380.124C293.1 384.636 287.448 386.4 287.448 386.4L276.264 420.768L282.108 444C282.108 444 271.692 459.84 267.6 469.464C263.508 479.088 268.428 489.972 272.748 494.484C277.068 498.996 282.804 505.116 297.444 504.54C317.844 503.736 332.244 505.596 338.784 497.94C345.324 490.284 345.984 475.824 338.208 464.916C333.504 458.28 327.084 443.94 327.084 443.94L333.444 420L323.7 386.4C323.7 386.4 317.832 386.064 314.304 381.744C310.776 377.424 311.556 369.564 311.556 369.564L299.184 368.928Z" fill="white"/>
<mask id="mask8_4_492" style="mask-type:luminance" maskUnits="userSpaceOnUse" x="266" y="368" width="78" height="137">
<path d="M299.184 368.928C299.184 368.928 298.596 375.612 295.848 380.124C293.1 384.636 287.448 386.4 287.448 386.4L276.264 420.768L282.108 444C282.108 444 271.692 459.84 267.6 469.464C263.508 479.088 268.428 489.972 272.748 494.484C277.068 498.996 282.804 505.116 297.444 504.54C317.844 503.736 332.244 505.596 338.784 497.94C345.324 490.284 345.984 475.824 338.208 464.916C333.504 458.28 327.084 443.94 327.084 443.94L333.444 420L323.7 386.4C323.7 386.4 317.832 386.064 314.304 381.744C310.776 377.424 311.556 369.564 311.556 369.564L299.184 368.928Z" fill="white"/>
</mask>
<g mask="url(#mask8_4_492)">
<path opacity="0.1" d="M299.184 368.928C299.184 368.928 298.596 375.612 295.848 380.124C293.1 384.636 287.448 386.4 287.448 386.4L276.264 420.768L282.108 444C282.108 444 271.692 459.84 267.6 469.464C263.508 479.088 268.428 489.972 272.748 494.484C277.068 498.996 282.804 505.116 297.444 504.54C317.844 503.736 332.244 505.596 338.784 497.94C345.324 490.284 345.984 475.824 338.208 464.916C333.504 458.28 327.084 443.94 327.084 443.94L333.444 420L323.7 386.4C323.7 386.4 317.832 386.064 314.304 381.744C310.776 377.424 311.556 369.564 311.556 369.564L299.184 368.928Z" fill="black"/>
</g>
<path d="M299.184 368.928C299.184 368.928 298.596 375.612 295.848 380.124C293.1 384.636 287.448 386.4 287.448 386.4L276.264 420.768L282.108 444C282.108 444 271.692 459.84 267.6 469.464C263.508 479.088 268.428 489.972 272.748 494.484C277.068 498.996 282.804 505.116 297.444 504.54C317.844 503.736 332.244 505.596 338.784 497.94C345.324 490.284 345.984 475.824 338.208 464.916C333.504 458.28 327.084 443.94 327.084 443.94L333.444 420L323.7 386.4C323.7 386.4 317.832 386.064 314.304 381.744C310.776 377.424 311.556 369.564 311.556 369.564L299.184 368.928Z" stroke="#263238" stroke-miterlimit="10" stroke-linecap="round"/>
<path d="M333.444 420L323.7 386.4C322.723 386.331 321.755 386.17 320.808 385.92C321.936 393.732 320.592 397.644 320.592 397.644C320.399 399.358 319.798 401.001 318.84 402.435C317.882 403.87 316.594 405.054 315.084 405.888C309.792 409.032 299.772 409.62 293.484 404.52C288.684 400.668 289.584 390.12 290.292 385.164C289.366 385.66 288.398 386.074 287.4 386.4L276.216 420.768L282.108 444H327.06L333.444 420Z" fill="#263238" stroke="#263238" stroke-miterlimit="10" stroke-linecap="round"/>
<path d="M289.668 353.34C289.668 353.34 286.068 348.636 284.796 352.14C283.524 355.644 289.848 358.752 289.848 358.752L289.668 353.34Z" fill="white"/>
<mask id="mask9_4_492" style="mask-type:luminance" maskUnits="userSpaceOnUse" x="284" y="350" width="6" height="9">
<path d="M289.668 353.34C289.668 353.34 286.068 348.636 284.796 352.14C283.524 355.644 289.848 358.752 289.848 358.752L289.668 353.34Z" fill="white"/>
</mask>
<g mask="url(#mask9_4_492)">
<path opacity="0.1" d="M289.668 353.34C289.668 353.34 286.068 348.636 284.796 352.14C283.524 355.644 289.848 358.752 289.848 358.752L289.668 353.34Z" fill="black"/>
</g>
<path d="M289.668 353.34C289.668 353.34 286.068 348.636 284.796 352.14C283.524 355.644 289.848 358.752 289.848 358.752L289.668 353.34Z" stroke="#263238" stroke-miterlimit="10" stroke-linecap="round"/>
<path d="M321.504 353.34C321.504 353.34 325.164 348.636 326.376 352.14C327.588 355.644 321.336 358.752 321.336 358.752L321.504 353.34Z" fill="white"/>
<mask id="mask10_4_492" style="mask-type:luminance" maskUnits="userSpaceOnUse" x="321" y="350" width="6" height="9">
<path d="M321.504 353.34C321.504 353.34 325.164 348.636 326.376 352.14C327.588 355.644 321.336 358.752 321.336 358.752L321.504 353.34Z" fill="white"/>
</mask>
<g mask="url(#mask10_4_492)">
<path opacity="0.1" d="M321.504 353.34C321.504 353.34 325.164 348.636 326.376 352.14C327.588 355.644 321.336 358.752 321.336 358.752L321.504 353.34Z" fill="black"/>
</g>
<path d="M321.504 353.34C321.504 353.34 325.164 348.636 326.376 352.14C327.588 355.644 321.336 358.752 321.336 358.752L321.504 353.34Z" stroke="#263238" stroke-miterlimit="10" stroke-linecap="round"/>
<path d="M305.748 373.62C301.56 373.62 297.543 371.956 294.581 368.995C291.62 366.033 289.956 362.016 289.956 357.828V333.6C289.954 332.827 290.105 332.061 290.4 331.346C290.695 330.631 291.128 329.982 291.674 329.434C292.22 328.887 292.869 328.453 293.583 328.157C294.297 327.861 295.063 327.708 295.836 327.708H315.6C316.383 327.694 317.161 327.835 317.888 328.125C318.615 328.415 319.278 328.847 319.836 329.395C320.395 329.944 320.839 330.598 321.141 331.32C321.444 332.042 321.6 332.817 321.6 333.6V357.864C321.594 359.939 321.179 361.993 320.379 363.908C319.579 365.823 318.409 367.562 316.937 369.025C315.465 370.488 313.719 371.647 311.8 372.435C309.88 373.224 307.823 373.626 305.748 373.62Z" fill="white"/>
<mask id="mask11_4_492" style="mask-type:luminance" maskUnits="userSpaceOnUse" x="289" y="327" width="33" height="47">
<path d="M305.748 373.62C301.56 373.62 297.543 371.956 294.581 368.995C291.62 366.033 289.956 362.016 289.956 357.828V333.6C289.954 332.827 290.105 332.061 290.4 331.346C290.695 330.631 291.128 329.982 291.674 329.434C292.22 328.887 292.869 328.453 293.583 328.157C294.297 327.861 295.063 327.708 295.836 327.708H315.6C316.383 327.694 317.161 327.835 317.888 328.125C318.615 328.415 319.278 328.847 319.836 329.395C320.395 329.944 320.839 330.598 321.141 331.32C321.444 332.042 321.6 332.817 321.6 333.6V357.864C321.594 359.939 321.179 361.993 320.379 363.908C319.579 365.823 318.409 367.562 316.937 369.025C315.465 370.488 313.719 371.647 311.8 372.435C309.88 373.224 307.823 373.626 305.748 373.62Z" fill="white"/>
</mask>
<g mask="url(#mask11_4_492)">
<path opacity="0.1" d="M305.748 373.62C301.56 373.62 297.543 371.956 294.581 368.995C291.62 366.033 289.956 362.016 289.956 357.828V333.6C289.954 332.827 290.105 332.061 290.4 331.346C290.695 330.631 291.128 329.982 291.674 329.434C292.22 328.887 292.869 328.453 293.583 328.157C294.297 327.861 295.063 327.708 295.836 327.708H315.6C316.383 327.694 317.161 327.835 317.888 328.125C318.615 328.415 319.278 328.847 319.836 329.395C320.395 329.944 320.839 330.598 321.141 331.32C321.444 332.042 321.6 332.817 321.6 333.6V357.864C321.594 359.939 321.179 361.993 320.379 363.908C319.579 365.823 318.409 367.562 316.937 369.025C315.465 370.488 313.719 371.647 311.8 372.435C309.88 373.224 307.823 373.626 305.748 373.62Z" fill="black"/>
</g>
<path d="M305.748 373.62C301.56 373.62 297.543 371.956 294.581 368.995C291.62 366.033 289.956 362.016 289.956 357.828V333.6C289.954 332.827 290.105 332.061 290.4 331.346C290.695 330.631 291.128 329.982 291.674 329.434C292.22 328.887 292.869 328.453 293.583 328.157C294.297 327.861 295.063 327.708 295.836 327.708H315.6C316.383 327.694 317.161 327.835 317.888 328.125C318.615 328.415 319.278 328.847 319.836 329.395C320.395 329.944 320.839 330.598 321.141 331.32C321.444 332.042 321.6 332.817 321.6 333.6V357.864C321.594 359.939 321.179 361.993 320.379 363.908C319.579 365.823 318.409 367.562 316.937 369.025C315.465 370.488 313.719 371.647 311.8 372.435C309.88 373.224 307.823 373.626 305.748 373.62Z" stroke="#263238" stroke-miterlimit="10" stroke-linecap="round"/>
<path d="M294 347.076C295.083 347.794 296.354 348.177 297.654 348.177C298.954 348.177 300.225 347.794 301.308 347.076" stroke="#263238" stroke-miterlimit="10" stroke-linecap="round"/>
<path d="M310.368 347.076C311.449 347.795 312.718 348.178 314.016 348.178C315.314 348.178 316.583 347.795 317.664 347.076" stroke="#263238" stroke-miterlimit="10" stroke-linecap="round"/>
<path d="M307.236 344.472L308.28 354.552H304.104" stroke="#263238" stroke-miterlimit="10" stroke-linecap="round"/>
<path d="M304.272 360.288H308.448" stroke="#263238" stroke-miterlimit="10" stroke-linecap="round"/>
<path d="M305.904 327.672H295.836C295.063 327.672 294.297 327.824 293.583 328.121C292.869 328.417 292.22 328.851 291.674 329.398C291.128 329.946 290.695 330.595 290.4 331.31C290.105 332.025 289.954 332.791 289.956 333.564V345.564C296.4 339.96 303.9 330.324 305.904 327.672Z" fill="#263238" stroke="#263238" stroke-miterlimit="10"/>
<path d="M321.6 346.02V333.6C321.6 332.037 320.979 330.539 319.874 329.434C318.769 328.329 317.271 327.708 315.708 327.708H306.696C308.772 334.284 316.8 342 321.6 346.02Z" fill="#263238" stroke="#263238" stroke-miterlimit="10"/>
<path d="M293.316 342.384C293.316 342.384 295.2 339.072 301.2 339.6" stroke="#263238" stroke-width="2" stroke-miterlimit="10" stroke-linecap="round"/>
<path d="M309.144 339.6C310.74 338.934 312.518 338.849 314.171 339.357C315.824 339.866 317.246 340.936 318.192 342.384" stroke="#263238" stroke-width="2" stroke-miterlimit="10" stroke-linecap="round"/>
<path d="M267.6 469.464C263.472 479.064 268.428 489.972 272.748 494.484C277.068 498.996 282.804 505.116 297.444 504.54C317.844 503.736 332.244 505.596 338.784 497.94C345.324 490.284 345.984 475.824 338.208 464.916C336.45 462.334 334.847 459.649 333.408 456.876H274.14C271.723 460.945 269.54 465.148 267.6 469.464Z" fill="#FFC727" stroke="#263238" stroke-miterlimit="10" stroke-linecap="round"/>
<path d="M299.712 488.94C289.38 478.224 270.624 472.86 261.432 471.324C252.24 469.788 235.404 460.524 235.404 460.524C235.404 460.524 225.444 460.188 226.212 472.056C226.98 483.924 255.684 497.712 266.796 503.832C271.787 506.648 277.381 508.226 283.108 508.435C288.835 508.644 294.529 507.477 299.712 505.032" fill="#FFC727"/>
<path d="M299.712 488.94C289.38 478.224 270.624 472.86 261.432 471.324C252.24 469.788 235.404 460.524 235.404 460.524C235.404 460.524 225.444 460.188 226.212 472.056C226.98 483.924 255.684 497.712 266.796 503.832C271.787 506.648 277.381 508.226 283.108 508.435C288.835 508.644 294.529 507.477 299.712 505.032" stroke="#263238" stroke-miterlimit="10" stroke-linecap="round"/>
<path d="M306.18 489.324C316.512 478.608 335.268 473.244 344.46 471.708C353.652 470.172 367.944 462.348 367.944 462.348C367.944 462.348 380.448 460.608 379.68 472.476C378.912 484.344 350.208 498.12 339.096 504.252C334.104 507.065 328.51 508.642 322.784 508.851C317.057 509.06 311.364 507.894 306.18 505.452" fill="#FFC727"/>
<path d="M306.18 489.324C316.512 478.608 335.268 473.244 344.46 471.708C353.652 470.172 367.944 462.348 367.944 462.348C367.944 462.348 380.448 460.608 379.68 472.476C378.912 484.344 350.208 498.12 339.096 504.252C334.104 507.065 328.51 508.642 322.784 508.851C317.057 509.06 311.364 507.894 306.18 505.452" stroke="#263238" stroke-miterlimit="10" stroke-linecap="round"/>
<path d="M349.308 508.056C349.308 508.056 350.724 507.12 350.016 504.756C349.308 502.392 345.528 504.276 342.924 504.276C340.32 504.276 330.396 503.328 325.68 502.86C321.636 502.452 315.024 502.572 313.188 502.608C313.455 505.516 312.858 508.438 311.472 511.008L312.396 511.104C320.436 511.896 323.928 512.052 326.388 512.568C330.876 513.516 335.832 517.296 340.788 517.068C345.744 516.84 350.244 513.468 350.244 511.392C350.293 510.209 349.965 509.041 349.308 508.056Z" fill="white"/>
<mask id="mask12_4_492" style="mask-type:luminance" maskUnits="userSpaceOnUse" x="311" y="502" width="40" height="16">
<path d="M349.308 508.056C349.308 508.056 350.724 507.12 350.016 504.756C349.308 502.392 345.528 504.276 342.924 504.276C340.32 504.276 330.396 503.328 325.68 502.86C321.636 502.452 315.024 502.572 313.188 502.608C313.455 505.516 312.858 508.438 311.472 511.008L312.396 511.104C320.436 511.896 323.928 512.052 326.388 512.568C330.876 513.516 335.832 517.296 340.788 517.068C345.744 516.84 350.244 513.468 350.244 511.392C350.293 510.209 349.965 509.041 349.308 508.056Z" fill="white"/>
</mask>
<g mask="url(#mask12_4_492)">
<path opacity="0.1" d="M349.308 508.056C349.308 508.056 350.724 507.12 350.016 504.756C349.308 502.392 345.528 504.276 342.924 504.276C340.32 504.276 330.396 503.328 325.68 502.86C321.636 502.452 315.024 502.572 313.188 502.608C313.455 505.516 312.858 508.438 311.472 511.008L312.396 511.104C320.436 511.896 323.928 512.052 326.388 512.568C330.876 513.516 335.832 517.296 340.788 517.068C345.744 516.84 350.244 513.468 350.244 511.392C350.293 510.209 349.965 509.041 349.308 508.056Z" fill="black"/>
</g>
<path d="M349.308 508.056C349.308 508.056 350.724 507.12 350.016 504.756C349.308 502.392 345.528 504.276 342.924 504.276C340.32 504.276 330.396 503.328 325.68 502.86C321.636 502.452 315.024 502.572 313.188 502.608C313.455 505.516 312.858 508.438 311.472 511.008L312.396 511.104C320.436 511.896 323.928 512.052 326.388 512.568C330.876 513.516 335.832 517.296 340.788 517.068C345.744 516.84 350.244 513.468 350.244 511.392C350.293 510.209 349.965 509.041 349.308 508.056Z" stroke="#263238" stroke-miterlimit="10" stroke-linecap="round"/>
<path d="M349.308 508.056C347.93 508.289 346.522 508.289 345.144 508.056" stroke="#263238" stroke-miterlimit="10" stroke-linecap="round"/>
<path d="M350.256 511.368C348.423 511.509 346.581 511.509 344.748 511.368" stroke="#263238" stroke-miterlimit="10" stroke-linecap="round"/>
<path d="M343.824 513.48C345.115 514.202 346.618 514.448 348.072 514.176" stroke="#263238" stroke-miterlimit="10" stroke-linecap="round"/>
<path d="M342 515.028C343.223 515.616 344.592 515.829 345.936 515.64" stroke="#263238" stroke-miterlimit="10" stroke-linecap="round"/>
<path d="M311.472 510.984C312.858 508.414 313.455 505.492 313.188 502.584H312.672C312.672 502.584 294.48 498.84 279.36 489.6C264.24 480.36 245.088 466.212 235.404 460.536C225.72 454.86 216.492 463.368 217.404 472.356C218.316 481.344 225.672 486.06 238.908 491.556C252.144 497.052 276.252 505.5 289.008 508.092C295.62 509.4 304.14 510.3 311.472 510.984Z" fill="#FFC727" stroke="#263238" stroke-miterlimit="10" stroke-linecap="round"/>
<path d="M290.22 513.48C288.838 510.908 288.246 507.987 288.516 505.08H289.02C289.02 505.08 307.212 501.3 322.344 492.084C337.476 482.868 356.604 468.684 366.3 463.008C375.996 457.332 385.2 465.852 384.3 474.828C383.4 483.804 376.032 488.532 362.796 493.968C349.56 499.404 325.464 507.912 312.696 510.516C306.072 511.884 297.6 512.784 290.22 513.48Z" fill="#FFC727" stroke="#263238" stroke-miterlimit="10" stroke-linecap="round"/>
<path d="M288.516 505.104C288.516 505.104 271.008 505.788 265.452 505.404C259.896 505.02 255.684 502.332 254.16 503.676C252.636 505.02 254.544 507.12 254.544 507.12C254.544 507.12 253.968 510.372 255.504 512.1C257.04 513.828 259.104 515.352 265.644 517.272C272.184 519.192 278.844 516.48 282.444 515.52L290.184 513.48C290.184 513.48 288.408 510.732 288.516 505.104Z" fill="white"/>
<mask id="mask13_4_492" style="mask-type:luminance" maskUnits="userSpaceOnUse" x="253" y="503" width="38" height="15">
<path d="M288.516 505.104C288.516 505.104 271.008 505.788 265.452 505.404C259.896 505.02 255.684 502.332 254.16 503.676C252.636 505.02 254.544 507.12 254.544 507.12C254.544 507.12 253.968 510.372 255.504 512.1C257.04 513.828 259.104 515.352 265.644 517.272C272.184 519.192 278.844 516.48 282.444 515.52L290.184 513.48C290.184 513.48 288.408 510.732 288.516 505.104Z" fill="white"/>
</mask>
<g mask="url(#mask13_4_492)">
<path opacity="0.1" d="M288.516 505.104C288.516 505.104 271.008 505.788 265.452 505.404C259.896 505.02 255.684 502.332 254.16 503.676C252.636 505.02 254.544 507.12 254.544 507.12C254.544 507.12 253.968 510.372 255.504 512.1C257.04 513.828 259.104 515.352 265.644 517.272C272.184 519.192 278.844 516.48 282.444 515.52L290.184 513.48C290.184 513.48 288.408 510.732 288.516 505.104Z" fill="black"/>
</g>
<path d="M288.516 505.104C288.516 505.104 271.008 505.788 265.452 505.404C259.896 505.02 255.684 502.332 254.16 503.676C252.636 505.02 254.544 507.12 254.544 507.12C254.544 507.12 253.968 510.372 255.504 512.1C257.04 513.828 259.104 515.352 265.644 517.272C272.184 519.192 278.844 516.48 282.444 515.52L290.184 513.48C290.184 513.48 288.408 510.732 288.516 505.104Z" stroke="#263238" stroke-miterlimit="10" stroke-linecap="round"/>
<path d="M254.544 507.12C254.94 506.854 255.405 506.712 255.882 506.712C256.359 506.712 256.824 506.854 257.22 507.12C258.137 507.745 259.183 508.156 260.28 508.32" stroke="#263238" stroke-miterlimit="10" stroke-linecap="round"/>
<path d="M254.76 510.84C255.066 510.564 255.435 510.367 255.834 510.267C256.234 510.166 256.652 510.165 257.052 510.264C257.966 510.524 258.91 510.662 259.86 510.672" stroke="#263238" stroke-miterlimit="10" stroke-linecap="round"/>
<path d="M257.688 513.876C257.688 513.876 258.024 512.904 258.66 512.904C259.296 512.904 261.924 513.252 262.608 513.192" stroke="#263238" stroke-miterlimit="10" stroke-linecap="round"/>
<path d="M261.408 515.772C261.408 515.772 262.044 514.908 262.608 514.86C263.332 514.759 264.061 514.699 264.792 514.68" stroke="#263238" stroke-miterlimit="10" stroke-linecap="round"/>
<path d="M311.2 420.451C311.008 420.384 310.815 420.323 310.62 420.266C310.653 420.131 310.683 419.997 310.71 419.866C311.148 417.713 310.862 415.977 309.882 415.406C308.943 414.858 307.407 415.43 305.857 416.795C305.704 416.93 305.554 417.068 305.408 417.211C305.311 417.116 305.211 417.023 305.11 416.932C303.485 415.472 301.855 414.857 300.877 415.43C299.939 415.979 299.661 417.61 300.056 419.652C300.095 419.854 300.14 420.055 300.189 420.255C299.958 420.321 299.736 420.392 299.523 420.467C297.617 421.139 296.4 422.192 296.4 423.285C296.4 424.413 297.707 425.545 299.691 426.231C299.852 426.287 300.015 426.338 300.178 426.385C300.125 426.6 300.078 426.817 300.037 427.035C299.66 429.041 299.954 430.633 300.89 431.179C301.856 431.743 303.478 431.164 305.058 429.767C305.186 429.654 305.311 429.537 305.433 429.417C305.591 429.571 305.753 429.721 305.92 429.866C307.45 431.198 308.96 431.735 309.895 431.188C310.861 430.623 311.174 428.912 310.767 426.83C310.735 426.667 310.699 426.505 310.659 426.344C310.773 426.309 310.885 426.274 310.994 426.238C313.057 425.546 314.4 424.428 314.4 423.285C314.4 422.188 313.144 421.128 311.2 420.451ZM310.752 425.5C310.654 425.532 310.553 425.564 310.45 425.595C310.222 424.866 309.914 424.09 309.538 423.288C309.897 422.506 310.193 421.74 310.414 421.015C310.598 421.069 310.777 421.126 310.949 421.186C312.615 421.766 313.631 422.624 313.631 423.285C313.631 423.989 312.534 424.902 310.752 425.5ZM310.013 426.981C310.193 427.902 310.219 428.734 310.099 429.384C309.992 429.969 309.777 430.359 309.51 430.515C308.943 430.847 307.73 430.415 306.421 429.276C306.267 429.142 306.116 429.002 305.969 428.859C306.476 428.298 306.983 427.646 307.478 426.921C308.348 426.843 309.17 426.715 309.915 426.541C309.951 426.687 309.984 426.834 310.013 426.981ZM302.537 430.457C301.982 430.655 301.541 430.661 301.274 430.505C300.706 430.174 300.47 428.895 300.792 427.18C300.831 426.978 300.874 426.776 300.924 426.576C301.661 426.741 302.477 426.859 303.349 426.931C303.847 427.64 304.369 428.291 304.895 428.862C304.783 428.971 304.668 429.078 304.552 429.181C303.853 429.799 303.153 430.237 302.537 430.457ZM299.94 425.495C299.063 425.192 298.338 424.797 297.841 424.367C297.394 423.98 297.169 423.596 297.169 423.285C297.169 422.622 298.146 421.776 299.776 421.201C299.974 421.132 300.181 421.066 300.396 421.004C300.621 421.745 300.916 422.52 301.273 423.304C300.912 424.099 300.612 424.886 300.384 425.636C300.235 425.593 300.087 425.546 299.94 425.495ZM300.811 419.502C300.472 417.753 300.697 416.434 301.262 416.103C301.864 415.751 303.196 416.253 304.6 417.514C304.691 417.596 304.781 417.68 304.87 417.766C304.347 418.334 303.83 418.981 303.336 419.686C302.49 419.765 301.679 419.892 300.934 420.063C300.888 419.877 300.847 419.69 300.811 419.502ZM308.575 421.442C308.399 421.134 308.216 420.831 308.028 420.531C308.602 420.604 309.152 420.702 309.669 420.821C309.514 421.324 309.32 421.85 309.093 422.389C308.926 422.07 308.754 421.754 308.575 421.442ZM305.409 418.322C305.763 418.711 306.119 419.145 306.468 419.615C305.759 419.582 305.049 419.581 304.34 419.615C304.69 419.149 305.048 418.715 305.409 418.322ZM302.222 421.447C302.045 421.757 301.876 422.071 301.714 422.388C301.49 421.851 301.298 421.323 301.142 420.813C301.656 420.697 302.203 420.602 302.774 420.53C302.583 420.831 302.399 421.137 302.222 421.447ZM302.79 426.095C302.201 426.029 301.645 425.938 301.131 425.825C301.29 425.306 301.486 424.767 301.715 424.218C301.878 424.536 302.048 424.85 302.225 425.16C302.407 425.479 302.596 425.791 302.79 426.095ZM305.43 428.302C305.065 427.904 304.702 427.464 304.347 426.991C304.692 427.005 305.043 427.012 305.4 427.012C305.767 427.012 306.13 427.003 306.487 426.987C306.136 427.469 305.782 427.91 305.43 428.302ZM309.1 424.19C309.341 424.745 309.543 425.281 309.704 425.792C309.183 425.912 308.619 426.009 308.025 426.081C308.216 425.776 308.4 425.467 308.578 425.155C308.759 424.837 308.933 424.515 309.1 424.19ZM307.912 424.766C307.639 425.245 307.351 425.715 307.048 426.175C306.5 426.215 305.95 426.234 305.4 426.234C304.84 426.234 304.295 426.216 303.77 426.182C303.46 425.723 303.166 425.252 302.89 424.77C302.616 424.291 302.36 423.802 302.123 423.303C302.359 422.804 302.615 422.315 302.888 421.835L302.888 421.835C303.161 421.356 303.453 420.887 303.761 420.43C304.296 420.389 304.845 420.368 305.4 420.368C305.957 420.368 306.507 420.389 307.042 420.43C307.347 420.887 307.637 421.354 307.909 421.831C308.184 422.31 308.442 422.797 308.685 423.292C308.445 423.793 308.187 424.284 307.912 424.766ZM309.498 416.08C310.101 416.432 310.335 417.85 309.957 419.709C309.932 419.828 309.905 419.949 309.876 420.071C309.129 419.897 308.318 419.767 307.469 419.687C306.974 418.974 306.462 418.326 305.947 417.766C306.082 417.634 306.22 417.506 306.361 417.382C307.69 416.212 308.932 415.75 309.498 416.08ZM305.4 421.659C306.288 421.659 307.007 422.387 307.007 423.285C307.007 424.183 306.288 424.911 305.4 424.911C304.512 424.911 303.793 424.183 303.793 423.285C303.793 422.387 304.512 421.659 305.4 421.659Z" fill="#00D8FF"/>
</svg>
