<svg width="117" height="28" viewBox="0 0 117 28" fill="none" xmlns="http://www.w3.org/2000/svg">
<path d="M8.46094 7.85547L3.82031 22H0.0820312L6.42188 4.9375H8.80078L8.46094 7.85547ZM12.3164 22L7.66406 7.85547L7.28906 4.9375H9.69141L16.0664 22H12.3164ZM12.1055 15.6484V18.4023H3.09375V15.6484H12.1055ZM25.4648 9.32031H28.5234V21.5781C28.5234 22.7344 28.2656 23.7148 27.75 24.5195C27.2422 25.332 26.5312 25.9453 25.6172 26.3594C24.7031 26.7812 23.6406 26.9922 22.4297 26.9922C21.8984 26.9922 21.3359 26.9219 20.7422 26.7812C20.1562 26.6406 19.5938 26.4219 19.0547 26.125C18.5234 25.8281 18.0781 25.4531 17.7188 25L19.207 23.0078C19.5977 23.4609 20.0508 23.8125 20.5664 24.0625C21.082 24.3203 21.6523 24.4492 22.2773 24.4492C22.8867 24.4492 23.4023 24.3359 23.8242 24.1094C24.2461 23.8906 24.5703 23.5664 24.7969 23.1367C25.0234 22.7148 25.1367 22.2031 25.1367 21.6016V12.25L25.4648 9.32031ZM16.9336 15.8125V15.5664C16.9336 14.5977 17.0508 13.7188 17.2852 12.9297C17.5273 12.1328 17.8672 11.4492 18.3047 10.8789C18.75 10.3086 19.2891 9.86719 19.9219 9.55469C20.5547 9.24219 21.2695 9.08594 22.0664 9.08594C22.9102 9.08594 23.6172 9.24219 24.1875 9.55469C24.7578 9.86719 25.2266 10.3125 25.5938 10.8906C25.9609 11.4609 26.2461 12.1367 26.4492 12.918C26.6602 13.6914 26.8242 14.5391 26.9414 15.4609V16C26.8242 16.8828 26.6484 17.7031 26.4141 18.4609C26.1797 19.2188 25.8711 19.8828 25.4883 20.4531C25.1055 21.0156 24.6289 21.4531 24.0586 21.7656C23.4961 22.0781 22.8242 22.2344 22.043 22.2344C21.2617 22.2344 20.5547 22.0742 19.9219 21.7539C19.2969 21.4336 18.7617 20.9844 18.3164 20.4062C17.8711 19.8281 17.5273 19.1484 17.2852 18.3672C17.0508 17.5859 16.9336 16.7344 16.9336 15.8125ZM20.3086 15.5664V15.8125C20.3086 16.3359 20.3594 16.8242 20.4609 17.2773C20.5625 17.7305 20.7188 18.1328 20.9297 18.4844C21.1484 18.8281 21.418 19.0977 21.7383 19.293C22.0664 19.4805 22.4531 19.5742 22.8984 19.5742C23.5156 19.5742 24.0195 19.4453 24.4102 19.1875C24.8008 18.9219 25.0938 18.5586 25.2891 18.0977C25.4844 17.6367 25.5977 17.1055 25.6289 16.5039V14.9688C25.6133 14.4766 25.5469 14.0352 25.4297 13.6445C25.3125 13.2461 25.1484 12.9062 24.9375 12.625C24.7266 12.3438 24.4531 12.125 24.1172 11.9688C23.7812 11.8125 23.3828 11.7344 22.9219 11.7344C22.4766 11.7344 22.0898 11.8359 21.7617 12.0391C21.4414 12.2344 21.1719 12.5039 20.9531 12.8477C20.7422 13.1914 20.582 13.5977 20.4727 14.0664C20.3633 14.5273 20.3086 15.0273 20.3086 15.5664ZM36.9844 22.2344C36 22.2344 35.1172 22.0781 34.3359 21.7656C33.5547 21.4453 32.8906 21.0039 32.3438 20.4414C31.8047 19.8789 31.3906 19.2266 31.1016 18.4844C30.8125 17.7344 30.668 16.9375 30.668 16.0938V15.625C30.668 14.6641 30.8047 13.7852 31.0781 12.9883C31.3516 12.1914 31.7422 11.5 32.25 10.9141C32.7656 10.3281 33.3906 9.87891 34.125 9.56641C34.8594 9.24609 35.6875 9.08594 36.6094 9.08594C37.5078 9.08594 38.3047 9.23438 39 9.53125C39.6953 9.82812 40.2773 10.25 40.7461 10.7969C41.2227 11.3438 41.582 12 41.8242 12.7656C42.0664 13.5234 42.1875 14.3672 42.1875 15.2969V16.7031H32.1094V14.4531H38.8711V14.1953C38.8711 13.7266 38.7852 13.3086 38.6133 12.9414C38.4492 12.5664 38.1992 12.2695 37.8633 12.0508C37.5273 11.832 37.0977 11.7227 36.5742 11.7227C36.1289 11.7227 35.7461 11.8203 35.4258 12.0156C35.1055 12.2109 34.8438 12.4844 34.6406 12.8359C34.4453 13.1875 34.2969 13.6016 34.1953 14.0781C34.1016 14.5469 34.0547 15.0625 34.0547 15.625V16.0938C34.0547 16.6016 34.125 17.0703 34.2656 17.5C34.4141 17.9297 34.6211 18.3008 34.8867 18.6133C35.1602 18.9258 35.4883 19.168 35.8711 19.3398C36.2617 19.5117 36.7031 19.5977 37.1953 19.5977C37.8047 19.5977 38.3711 19.4805 38.8945 19.2461C39.4258 19.0039 39.8828 18.6406 40.2656 18.1562L41.9062 19.9375C41.6406 20.3203 41.2773 20.6875 40.8164 21.0391C40.3633 21.3906 39.8164 21.6797 39.1758 21.9062C38.5352 22.125 37.8047 22.2344 36.9844 22.2344ZM47.4141 12.0273V22H44.0391V9.32031H47.2031L47.4141 12.0273ZM46.9219 15.2148H46.0078C46.0078 14.2773 46.1289 13.4336 46.3711 12.6836C46.6133 11.9258 46.9531 11.2812 47.3906 10.75C47.8281 10.2109 48.3477 9.80078 48.9492 9.51953C49.5586 9.23047 50.2383 9.08594 50.9883 9.08594C51.582 9.08594 52.125 9.17188 52.6172 9.34375C53.1094 9.51562 53.5312 9.78906 53.8828 10.1641C54.2422 10.5391 54.5156 11.0352 54.7031 11.6523C54.8984 12.2695 54.9961 13.0234 54.9961 13.9141V22H51.5977V13.9023C51.5977 13.3398 51.5195 12.9023 51.3633 12.5898C51.207 12.2773 50.9766 12.0586 50.6719 11.9336C50.375 11.8008 50.0078 11.7344 49.5703 11.7344C49.1172 11.7344 48.7227 11.8242 48.3867 12.0039C48.0586 12.1836 47.7852 12.4336 47.5664 12.7539C47.3555 13.0664 47.1953 13.4336 47.0859 13.8555C46.9766 14.2773 46.9219 14.7305 46.9219 15.2148ZM65.0508 19.2344V4H68.4492V22H65.3906L65.0508 19.2344ZM57.0352 15.8125V15.5664C57.0352 14.5977 57.1445 13.7188 57.3633 12.9297C57.582 12.1328 57.9023 11.4492 58.3242 10.8789C58.7461 10.3086 59.2656 9.86719 59.8828 9.55469C60.5 9.24219 61.2031 9.08594 61.9922 9.08594C62.7344 9.08594 63.3828 9.24219 63.9375 9.55469C64.5 9.86719 64.9766 10.3125 65.3672 10.8906C65.7656 11.4609 66.0859 12.1367 66.3281 12.918C66.5703 13.6914 66.7461 14.5391 66.8555 15.4609V16C66.7461 16.8828 66.5703 17.7031 66.3281 18.4609C66.0859 19.2188 65.7656 19.8828 65.3672 20.4531C64.9766 21.0156 64.5 21.4531 63.9375 21.7656C63.375 22.0781 62.7188 22.2344 61.9688 22.2344C61.1797 22.2344 60.4766 22.0742 59.8594 21.7539C59.25 21.4336 58.7344 20.9844 58.3125 20.4062C57.8984 19.8281 57.582 19.1484 57.3633 18.3672C57.1445 17.5859 57.0352 16.7344 57.0352 15.8125ZM60.4102 15.5664V15.8125C60.4102 16.3359 60.4492 16.8242 60.5273 17.2773C60.6133 17.7305 60.75 18.1328 60.9375 18.4844C61.1328 18.8281 61.3828 19.0977 61.6875 19.293C62 19.4805 62.3789 19.5742 62.8242 19.5742C63.4023 19.5742 63.8789 19.4453 64.2539 19.1875C64.6289 18.9219 64.9141 18.5586 65.1094 18.0977C65.3125 17.6367 65.4297 17.1055 65.4609 16.5039V14.9688C65.4375 14.4766 65.3672 14.0352 65.25 13.6445C65.1406 13.2461 64.9766 12.9062 64.7578 12.625C64.5469 12.3438 64.2812 12.125 63.9609 11.9688C63.6484 11.8125 63.2773 11.7344 62.8477 11.7344C62.4102 11.7344 62.0352 11.8359 61.7227 12.0391C61.4102 12.2344 61.1562 12.5039 60.9609 12.8477C60.7734 13.1914 60.6328 13.5977 60.5391 14.0664C60.4531 14.5273 60.4102 15.0273 60.4102 15.5664ZM76.9219 22.2344C75.9375 22.2344 75.0547 22.0781 74.2734 21.7656C73.4922 21.4453 72.8281 21.0039 72.2812 20.4414C71.7422 19.8789 71.3281 19.2266 71.0391 18.4844C70.75 17.7344 70.6055 16.9375 70.6055 16.0938V15.625C70.6055 14.6641 70.7422 13.7852 71.0156 12.9883C71.2891 12.1914 71.6797 11.5 72.1875 10.9141C72.7031 10.3281 73.3281 9.87891 74.0625 9.56641C74.7969 9.24609 75.625 9.08594 76.5469 9.08594C77.4453 9.08594 78.2422 9.23438 78.9375 9.53125C79.6328 9.82812 80.2148 10.25 80.6836 10.7969C81.1602 11.3438 81.5195 12 81.7617 12.7656C82.0039 13.5234 82.125 14.3672 82.125 15.2969V16.7031H72.0469V14.4531H78.8086V14.1953C78.8086 13.7266 78.7227 13.3086 78.5508 12.9414C78.3867 12.5664 78.1367 12.2695 77.8008 12.0508C77.4648 11.832 77.0352 11.7227 76.5117 11.7227C76.0664 11.7227 75.6836 11.8203 75.3633 12.0156C75.043 12.2109 74.7812 12.4844 74.5781 12.8359C74.3828 13.1875 74.2344 13.6016 74.1328 14.0781C74.0391 14.5469 73.9922 15.0625 73.9922 15.625V16.0938C73.9922 16.6016 74.0625 17.0703 74.2031 17.5C74.3516 17.9297 74.5586 18.3008 74.8242 18.6133C75.0977 18.9258 75.4258 19.168 75.8086 19.3398C76.1992 19.5117 76.6406 19.5977 77.1328 19.5977C77.7422 19.5977 78.3086 19.4805 78.832 19.2461C79.3633 19.0039 79.8203 18.6406 80.2031 18.1562L81.8438 19.9375C81.5781 20.3203 81.2148 20.6875 80.7539 21.0391C80.3008 21.3906 79.7539 21.6797 79.1133 21.9062C78.4727 22.125 77.7422 22.2344 76.9219 22.2344Z" fill="white"/>
<path d="M98.2734 13.0703V13.8789C98.2734 15.1758 98.0977 16.3398 97.7461 17.3711C97.3945 18.4023 96.8984 19.2812 96.2578 20.0078C95.6172 20.7266 94.8516 21.2773 93.9609 21.6602C93.0781 22.043 92.0977 22.2344 91.0195 22.2344C89.9492 22.2344 88.9688 22.043 88.0781 21.6602C87.1953 21.2773 86.4297 20.7266 85.7812 20.0078C85.1328 19.2812 84.6289 18.4023 84.2695 17.3711C83.918 16.3398 83.7422 15.1758 83.7422 13.8789V13.0703C83.7422 11.7656 83.918 10.6016 84.2695 9.57812C84.6211 8.54688 85.1172 7.66797 85.7578 6.94141C86.4062 6.21484 87.1719 5.66016 88.0547 5.27734C88.9453 4.89453 89.9258 4.70312 90.9961 4.70312C92.0742 4.70312 93.0547 4.89453 93.9375 5.27734C94.8281 5.66016 95.5938 6.21484 96.2344 6.94141C96.8828 7.66797 97.3828 8.54688 97.7344 9.57812C98.0938 10.6016 98.2734 11.7656 98.2734 13.0703ZM94.7227 13.8789V13.0469C94.7227 12.1406 94.6406 11.3438 94.4766 10.6562C94.3125 9.96875 94.0703 9.39062 93.75 8.92188C93.4297 8.45312 93.0391 8.10156 92.5781 7.86719C92.1172 7.625 91.5898 7.50391 90.9961 7.50391C90.4023 7.50391 89.875 7.625 89.4141 7.86719C88.9609 8.10156 88.5742 8.45312 88.2539 8.92188C87.9414 9.39062 87.7031 9.96875 87.5391 10.6562C87.375 11.3438 87.293 12.1406 87.293 13.0469V13.8789C87.293 14.7773 87.375 15.5742 87.5391 16.2695C87.7031 16.957 87.9453 17.5391 88.2656 18.0156C88.5859 18.4844 88.9766 18.8398 89.4375 19.082C89.8984 19.3242 90.4258 19.4453 91.0195 19.4453C91.6133 19.4453 92.1406 19.3242 92.6016 19.082C93.0625 18.8398 93.4492 18.4844 93.7617 18.0156C94.0742 17.5391 94.3125 16.957 94.4766 16.2695C94.6406 15.5742 94.7227 14.7773 94.7227 13.8789ZM114.691 4.9375V22H111.176L104.32 10.5625V22H100.805V4.9375H104.32L111.188 16.3867V4.9375H114.691Z" fill="#00D8FF"/>
</svg>
